# Blender v2.78 (sub 0) OBJ File: ''
# www.blender.org
mtllib Active_Token.mtl
o Cube.002
v -0.404605 0.035000 0.190001
v -0.404605 -0.035000 -0.190000
v -0.404605 -0.035000 0.190001
v -0.404605 0.035000 -0.190000
v 0.404605 -0.035000 -0.190000
v 0.404605 0.035000 -0.190000
v 0.404605 -0.035000 0.190001
v 0.404605 0.035000 0.190001
vt 0.5825 0.5444
vt 0.5828 0.5425
vt 0.5828 0.5444
vt 0.5820 0.5436
vt 0.5823 0.5407
vt 0.5823 0.5436
vt 0.5828 0.5407
vt 0.5825 0.5425
vt 0.5825 0.5407
vt 0.5825 0.5407
vt 0.5823 0.5436
vt 0.5823 0.5407
vt 0.5806 0.5407
vt 0.5820 0.5436
vt 0.5806 0.5436
vt 0.0009 0.9988
vt 0.9997 0.0008
vt 0.9997 0.9988
vt 0.5825 0.5425
vt 0.5820 0.5407
vt 0.5828 0.5425
vt 0.5825 0.5436
vt 0.5820 0.5407
vt 0.0009 0.0008
vn -1.0000 0.0000 0.0000
vn 0.0000 0.0000 -1.0000
vn 1.0000 0.0000 0.0000
vn 0.0000 0.0000 1.0000
vn 0.0000 -1.0000 -0.0000
vn 0.0000 1.0000 0.0000
usemtl Material.010
s 1
f 1/1/1 2/2/1 3/3/1
f 4/4/2 5/5/2 2/6/2
f 6/7/3 7/8/3 5/9/3
f 8/10/4 3/11/4 7/12/4
f 5/13/5 3/14/5 2/15/5
f 4/16/6 8/17/6 6/18/6
f 1/1/1 4/19/1 2/2/1
f 4/4/2 6/20/2 5/5/2
f 6/7/3 8/21/3 7/8/3
f 8/10/4 1/22/4 3/11/4
f 5/13/5 7/23/5 3/14/5
f 4/16/6 1/24/6 8/17/6
