# Blender v2.78 (sub 0) OBJ File: ''
# www.blender.org
mtllib Bench  Card C.mtl
o Plane_Plane.003
v -1.042988 0.000000 3.613151
v 1.042988 0.000000 3.613151
v -1.042988 0.000000 -4.372151
v 1.042988 0.000000 -4.372151
v -1.042988 0.075685 -4.372151
v -1.042988 0.075685 3.613151
v 1.042988 0.075685 3.613151
v 1.042988 0.075685 -4.372151
vn 0.0000 -1.0000 0.0000
vn 0.0000 1.0000 0.0000
vn 0.0000 0.0000 -1.0000
vn 0.0000 0.0000 1.0000
vn 1.0000 0.0000 0.0000
vn -1.0000 0.0000 0.0000
usemtl None
s off
f 3//1 2//1 1//1
f 7//2 5//2 6//2
f 3//3 8//3 4//3
f 2//4 6//4 1//4
f 4//5 7//5 2//5
f 1//6 5//6 3//6
f 3//1 4//1 2//1
f 7//2 8//2 5//2
f 3//3 5//3 8//3
f 2//4 7//4 6//4
f 4//5 8//5 7//5
f 1//6 6//6 5//6
