# Blender v2.78 (sub 0) OBJ File: ''
# www.blender.org
mtllib grass.mtl
o kusamura1_kusamura1_kusamura.png.003
v -0.586894 0.132871 0.423148
v -0.156546 -0.058042 0.410536
v -0.533287 0.279848 0.197333
v -0.533287 0.279848 0.197333
v -0.156546 -0.058042 0.410536
v -0.252964 -0.058042 0.107996
v -0.375500 -0.058063 0.266583
v -0.059525 -0.058063 0.235174
v -0.402132 0.300047 -0.001335
v -0.402132 0.300047 -0.001335
v -0.059525 -0.058063 0.235174
v -0.218967 0.161443 -0.147404
v -0.136611 0.178497 0.598113
v -0.055118 -0.058042 0.189175
v -0.387260 0.256826 0.483907
v -0.387260 0.256826 0.483907
v -0.055118 -0.058042 0.189175
v -0.432072 -0.058042 0.267080
v 0.125701 0.173312 0.248238
v -0.049324 0.285849 -0.026665
v -0.201052 -0.058042 0.433978
v -0.201052 -0.058042 0.433978
v -0.049324 0.285849 -0.026665
v -0.286138 -0.058042 0.022277
v -0.086900 -0.025998 0.084156
v -0.038546 0.443141 0.163089
v -0.275614 -0.025998 0.415394
v -0.275614 -0.025998 0.415394
v -0.038546 0.443141 0.163089
v -0.350214 0.380167 0.423692
v -0.446346 0.061748 0.536516
v -0.243595 -0.046725 0.228128
v -0.551983 0.061748 0.025376
v 0.063300 0.061748 0.429897
v -0.243595 -0.046725 0.228128
v -0.446346 0.061748 0.536516
v -0.041825 0.061748 -0.078767
v -0.243595 -0.046725 0.228128
v 0.063300 0.061748 0.429897
v -0.551983 0.061748 0.025376
v -0.243595 -0.046725 0.228128
v -0.041825 0.061748 -0.078767
v -0.157510 0.130913 -0.596400
v -0.402319 -0.051401 -0.266086
v -0.019769 0.271272 -0.422760
v -0.019769 0.271272 -0.422760
v -0.402319 -0.051401 -0.266086
v -0.118374 -0.051401 -0.159667
v -0.164952 -0.051421 -0.345298
v -0.328081 -0.051421 -0.089684
v 0.051785 0.290560 -0.206980
v 0.051785 0.290560 -0.206980
v -0.328081 -0.051421 -0.089684
v 0.053149 0.158199 0.016742
v -0.554824 0.174485 -0.361959
v -0.296175 -0.051401 -0.059200
v -0.321047 0.249286 -0.482527
v -0.321047 0.249286 -0.482527
v -0.296175 -0.051401 -0.059200
v -0.131899 -0.051401 -0.388034
v -0.447323 0.169533 0.041560
v -0.137667 0.277002 0.072676
v -0.393610 -0.051401 -0.313327
v -0.393610 -0.051401 -0.313327
v -0.137667 0.277002 0.072676
v -0.034464 -0.051401 -0.133908
v -0.198607 -0.020800 -0.020993
v -0.286396 0.427211 -0.031354
v -0.335612 -0.020800 -0.358285
v -0.335612 -0.020800 -0.358285
v -0.286396 0.427211 -0.031354
v -0.297760 0.367072 -0.419155
v -0.325605 0.062994 -0.557939
v -0.214037 -0.040594 -0.223617
v 0.120285 0.062994 -0.335185
v -0.546740 0.062994 -0.112589
v -0.214037 -0.040594 -0.223617
v -0.325605 0.062994 -0.557939
v -0.103009 0.062994 0.109086
v -0.214037 -0.040594 -0.223617
v -0.546740 0.062994 -0.112589
v 0.120285 0.062994 -0.335185
v -0.214037 -0.040594 -0.223617
v -0.103009 0.062994 0.109086
v 0.569223 0.132283 0.050149
v 0.144942 -0.056046 0.069117
v 0.519774 0.277271 0.273694
v 0.519774 0.277271 0.273694
v 0.144942 -0.056046 0.069117
v 0.244633 -0.056046 0.366064
v 0.363090 -0.056066 0.207783
v 0.051905 -0.056066 0.243556
v 0.393423 0.297196 0.471639
v 0.393423 0.297196 0.471639
v 0.051905 -0.056066 0.243556
v 0.214974 0.160468 0.618493
v 0.122434 0.177291 -0.115597
v 0.048256 -0.056046 0.288994
v 0.371394 0.254560 -0.006752
v 0.371394 0.254560 -0.006752
v 0.048256 -0.056046 0.288994
v 0.418883 -0.056046 0.206435
v -0.130990 0.172177 0.233480
v 0.045816 0.283190 0.501976
v 0.188485 -0.056046 0.045320
v 0.188485 -0.056046 0.045320
v 0.045816 0.283190 0.501976
v 0.278654 -0.056046 0.450109
v 0.081197 -0.024436 0.392098
v 0.032307 0.438353 0.314975
v 0.262311 -0.024436 0.062520
v 0.262311 -0.024436 0.062520
v 0.032307 0.438353 0.314975
v 0.335767 0.376231 0.053203
v 0.428875 0.062123 -0.059539
v 0.233569 -0.044882 0.247715
v 0.540823 0.062123 0.443020
v -0.072196 0.062122 0.053355
v 0.233569 -0.044882 0.247715
v 0.428875 0.062123 -0.059539
v 0.039210 0.062123 0.553480
v 0.233569 -0.044882 0.247715
v -0.072196 0.062122 0.053355
v 0.540823 0.062123 0.443020
v 0.233569 -0.044882 0.247715
v 0.039210 0.062123 0.553480
v 0.169706 0.132354 0.174187
v 0.400977 -0.056290 -0.182874
v 0.016147 0.277585 0.003855
v 0.016147 0.277585 0.003855
v 0.400977 -0.056290 -0.182874
v 0.100821 -0.056290 -0.274259
v 0.161022 -0.056310 -0.085601
v 0.312816 -0.056310 -0.360198
v -0.071811 0.297544 -0.214309
v -0.071811 0.297544 -0.214309
v 0.312816 -0.056310 -0.360198
v -0.087804 0.160587 -0.445249
v 0.564714 0.177438 -0.093811
v 0.277880 -0.056290 -0.389598
v 0.331160 0.254837 0.045934
v 0.331160 0.254837 0.045934
v 0.277880 -0.056290 -0.389598
v 0.129675 -0.056290 -0.039314
v 0.427396 0.172315 -0.503501
v 0.105598 0.283515 -0.515448
v 0.395063 -0.056290 -0.133523
v 0.395063 -0.056290 -0.133523
v 0.105598 0.283515 -0.515448
v 0.012492 -0.056290 -0.295390
v 0.174635 -0.024626 -0.422692
v 0.265966 0.438938 -0.417715
v 0.338102 -0.024626 -0.083316
v 0.338102 -0.024626 -0.083316
v 0.265966 0.438938 -0.417715
v 0.302982 0.376712 -0.017989
v 0.340783 0.062077 0.123512
v 0.203777 -0.045107 -0.214456
v -0.134191 0.062077 -0.077450
v 0.540109 0.062077 -0.350799
v 0.203777 -0.045107 -0.214456
v 0.340783 0.062077 0.123512
v 0.067435 0.062077 -0.550788
v 0.203777 -0.045107 -0.214456
v 0.540109 0.062077 -0.350799
v -0.134191 0.062077 -0.077450
v 0.203777 -0.045107 -0.214456
v 0.067435 0.062077 -0.550788
vt 0.0041 1.0000
vt 0.0041 0.0000
vt 1.0041 1.0000
vt 1.0041 1.0000
vt 0.0041 0.0000
vt 1.0041 0.0000
vt 0.0041 0.0000
vt 1.0041 0.0000
vt 0.0041 1.0000
vt 0.0041 1.0000
vt 1.0041 0.0000
vt 1.0041 1.0000
vt 0.0041 1.0000
vt 0.0041 0.0000
vt 1.0041 1.0000
vt 1.0041 1.0000
vt 0.0041 0.0000
vt 1.0041 0.0000
vt 1.0041 1.0000
vt 0.0041 1.0000
vt 1.0041 0.0000
vt 1.0041 0.0000
vt 0.0041 1.0000
vt 0.0041 0.0000
vt 1.0041 0.0000
vt 1.0041 1.0000
vt 0.0041 0.0000
vt 0.0041 0.0000
vt 1.0041 1.0000
vt 0.0041 1.0000
vt -0.0498 0.8994
vt 0.5041 0.0000
vt 1.0955 0.9022
vt -0.0498 0.8994
vt 0.5041 0.0000
vt 1.0955 0.9022
vt -0.0498 0.8994
vt 0.5041 0.0000
vt 1.0955 0.9022
vt -0.0498 0.8994
vt 0.5041 0.0000
vt 1.0955 0.9022
vt 0.0041 1.0000
vt 0.0041 0.0000
vt 1.0041 1.0000
vt 1.0041 1.0000
vt 0.0041 0.0000
vt 1.0041 0.0000
vt 0.0041 0.0000
vt 1.0041 0.0000
vt 0.0041 1.0000
vt 0.0041 1.0000
vt 1.0041 0.0000
vt 1.0041 1.0000
vt 0.0041 1.0000
vt 0.0041 0.0000
vt 1.0041 1.0000
vt 1.0041 1.0000
vt 0.0041 0.0000
vt 1.0041 0.0000
vt 1.0041 1.0000
vt 0.0041 1.0000
vt 1.0041 0.0000
vt 1.0041 0.0000
vt 0.0041 1.0000
vt 0.0041 0.0000
vt 1.0041 0.0000
vt 1.0041 1.0000
vt 0.0041 0.0000
vt 0.0041 0.0000
vt 1.0041 1.0000
vt 0.0041 1.0000
vt -0.0498 0.8994
vt 0.5041 0.0000
vt 1.0955 0.9022
vt -0.0498 0.8994
vt 0.5041 0.0000
vt 1.0955 0.9022
vt -0.0498 0.8994
vt 0.5041 0.0000
vt 1.0955 0.9022
vt -0.0498 0.8994
vt 0.5041 0.0000
vt 1.0955 0.9022
vt 0.0041 1.0000
vt 0.0041 0.0000
vt 1.0041 1.0000
vt 1.0041 1.0000
vt 0.0041 0.0000
vt 1.0041 0.0000
vt 0.0041 0.0000
vt 1.0041 0.0000
vt 0.0041 1.0000
vt 0.0041 1.0000
vt 1.0041 0.0000
vt 1.0041 1.0000
vt 0.0041 1.0000
vt 0.0041 0.0000
vt 1.0041 1.0000
vt 1.0041 1.0000
vt 0.0041 0.0000
vt 1.0041 0.0000
vt 1.0041 1.0000
vt 0.0041 1.0000
vt 1.0041 0.0000
vt 1.0041 0.0000
vt 0.0041 1.0000
vt 0.0041 0.0000
vt 1.0041 0.0000
vt 1.0041 1.0000
vt 0.0041 0.0000
vt 0.0041 0.0000
vt 1.0041 1.0000
vt 0.0041 1.0000
vt -0.0498 0.8994
vt 0.5041 0.0000
vt 1.0955 0.9022
vt -0.0498 0.8994
vt 0.5041 0.0000
vt 1.0955 0.9022
vt -0.0498 0.8994
vt 0.5041 0.0000
vt 1.0955 0.9022
vt -0.0498 0.8994
vt 0.5041 0.0000
vt 1.0955 0.9022
vt 0.0041 1.0000
vt 0.0041 0.0000
vt 1.0041 1.0000
vt 1.0041 1.0000
vt 0.0041 0.0000
vt 1.0041 0.0000
vt 0.0041 0.0000
vt 1.0041 0.0000
vt 0.0041 1.0000
vt 0.0041 1.0000
vt 1.0041 0.0000
vt 1.0041 1.0000
vt 0.0041 1.0000
vt 0.0041 0.0000
vt 1.0041 1.0000
vt 1.0041 1.0000
vt 0.0041 0.0000
vt 1.0041 0.0000
vt 1.0041 1.0000
vt 0.0041 1.0000
vt 1.0041 0.0000
vt 1.0041 0.0000
vt 0.0041 1.0000
vt 0.0041 0.0000
vt 1.0041 0.0000
vt 1.0041 1.0000
vt 0.0041 0.0000
vt 0.0041 0.0000
vt 1.0041 1.0000
vt 0.0041 1.0000
vt -0.0498 0.8994
vt 0.5041 0.0000
vt 1.0955 0.9022
vt -0.0498 0.8994
vt 0.5041 0.0000
vt 1.0955 0.9022
vt -0.0498 0.8994
vt 0.5041 0.0000
vt 1.0955 0.9022
vt -0.0498 0.8994
vt 0.5041 0.0000
vt 1.0955 0.9022
vn 0.3476 0.7460 0.5681
vn 0.7186 0.6567 -0.2290
vn 0.0791 0.6009 0.7954
vn 0.6668 0.7316 0.1419
vn 0.4308 0.8157 -0.3860
vn -0.1656 0.5752 -0.8011
vn -0.2830 0.8109 0.5122
vn -0.8011 0.5752 0.1656
vn 0.8562 -0.1703 0.4878
vn 0.6264 0.0993 0.7731
vn 0.3759 0.9234 -0.0777
vn -0.0788 0.9231 -0.3765
vn -0.3774 0.9227 0.0780
vn 0.0769 0.9231 0.3768
vn -0.6613 0.7460 -0.0784
vn -0.2647 0.6567 0.7062
vn -0.6738 0.6009 -0.4300
vn -0.5240 0.7316 0.4360
vn 0.0367 0.8157 0.5773
vn 0.7318 0.5752 0.3656
vn -0.2273 0.8109 -0.5392
vn 0.3656 0.5752 -0.7318
vn -0.9129 -0.1703 0.3708
vn -0.9950 0.0993 0.0138
vn -0.1715 0.9234 0.3434
vn 0.3445 0.9231 0.1711
vn 0.1722 0.9227 -0.3448
vn -0.3437 0.9231 -0.1727
vn -0.3563 0.7460 -0.5626
vn -0.7150 0.6567 0.2400
vn -0.0913 0.6009 -0.7941
vn -0.6689 0.7316 -0.1316
vn -0.4248 0.8157 0.3926
vn 0.1779 0.5752 0.7984
vn 0.2751 0.8109 -0.5165
vn 0.7984 0.5752 -0.1779
vn -0.8636 -0.1703 -0.4746
vn -0.6382 0.0993 -0.7634
vn -0.3746 0.9234 0.0835
vn 0.0845 0.9231 0.3752
vn 0.3762 0.9227 -0.0838
vn -0.0827 0.9231 -0.3756
vn 0.6650 0.7460 0.0366
vn 0.2197 0.6567 -0.7215
vn 0.6995 0.6009 0.3867
vn 0.4955 0.7316 -0.4682
vn -0.0730 0.8157 -0.5738
vn -0.7534 0.5752 -0.3187
vn 0.2608 0.8109 0.5238
vn -0.3187 0.5752 0.7534
vn 0.8878 -0.1703 -0.4276
vn 0.9921 0.0993 -0.0764
vn 0.1496 0.9234 -0.3535
vn -0.3546 0.9231 -0.1490
vn -0.1502 0.9227 0.3549
vn 0.3538 0.9231 0.1507
usemtl kusamura.png
s off
f 1/1/1 2/2/1 3/3/1
f 4/4/2 5/5/2 6/6/2
f 7/7/3 8/8/3 9/9/3
f 10/10/4 11/11/4 12/12/4
f 13/13/5 14/14/5 15/15/5
f 16/16/6 17/17/6 18/18/6
f 19/19/7 20/20/7 21/21/7
f 22/22/8 23/23/8 24/24/8
f 25/25/9 26/26/9 27/27/9
f 28/28/10 29/29/10 30/30/10
f 31/31/11 32/32/11 33/33/11
f 34/34/12 35/35/12 36/36/12
f 37/37/13 38/38/13 39/39/13
f 40/40/14 41/41/14 42/42/14
f 43/43/15 44/44/15 45/45/15
f 46/46/16 47/47/16 48/48/16
f 49/49/17 50/50/17 51/51/17
f 52/52/18 53/53/18 54/54/18
f 55/55/19 56/56/19 57/57/19
f 58/58/20 59/59/20 60/60/20
f 61/61/21 62/62/21 63/63/21
f 64/64/22 65/65/22 66/66/22
f 67/67/23 68/68/23 69/69/23
f 70/70/24 71/71/24 72/72/24
f 73/73/25 74/74/25 75/75/25
f 76/76/26 77/77/26 78/78/26
f 79/79/27 80/80/27 81/81/27
f 82/82/28 83/83/28 84/84/28
f 85/85/29 86/86/29 87/87/29
f 88/88/30 89/89/30 90/90/30
f 91/91/31 92/92/31 93/93/31
f 94/94/32 95/95/32 96/96/32
f 97/97/33 98/98/33 99/99/33
f 100/100/34 101/101/34 102/102/34
f 103/103/35 104/104/35 105/105/35
f 106/106/36 107/107/36 108/108/36
f 109/109/37 110/110/37 111/111/37
f 112/112/38 113/113/38 114/114/38
f 115/115/39 116/116/39 117/117/39
f 118/118/40 119/119/40 120/120/40
f 121/121/41 122/122/41 123/123/41
f 124/124/42 125/125/42 126/126/42
f 127/127/43 128/128/43 129/129/43
f 130/130/44 131/131/44 132/132/44
f 133/133/45 134/134/45 135/135/45
f 136/136/46 137/137/46 138/138/46
f 139/139/47 140/140/47 141/141/47
f 142/142/48 143/143/48 144/144/48
f 145/145/49 146/146/49 147/147/49
f 148/148/50 149/149/50 150/150/50
f 151/151/51 152/152/51 153/153/51
f 154/154/52 155/155/52 156/156/52
f 157/157/53 158/158/53 159/159/53
f 160/160/54 161/161/54 162/162/54
f 163/163/55 164/164/55 165/165/55
f 166/166/56 167/167/56 168/168/56
