# Blender v2.78 (sub 0) OBJ File: ''
# www.blender.org
mtllib MAP_GYM_C.mtl
o Plane.003_Plane.006
v 3.988387 -0.155846 5.932757
v 5.988387 -0.155846 5.932757
v 3.988387 -0.155846 3.932757
v 5.988387 -0.155846 3.932757
v 3.988387 -0.028160 5.932757
v 5.988387 -0.028160 5.932757
v 3.988387 -0.028160 3.932757
v 5.988387 -0.028160 3.932757
vn 0.0000 -1.0000 0.0000
vn 0.0000 1.0000 0.0000
vn 0.0000 0.0000 -1.0000
vn 0.0000 0.0000 1.0000
vn 1.0000 0.0000 0.0000
vn -1.0000 0.0000 0.0000
usemtl None
s off
f 3//1 2//1 1//1
f 6//2 7//2 5//2
f 3//3 8//3 4//3
f 2//4 5//4 1//4
f 4//5 6//5 2//5
f 1//6 7//6 3//6
f 3//1 4//1 2//1
f 6//2 8//2 7//2
f 3//3 7//3 8//3
f 2//4 6//4 5//4
f 4//5 8//5 6//5
f 1//6 5//6 7//6
o Plane.001_Plane.005
v -5.974144 -0.155846 -3.972278
v -3.974144 -0.155846 -3.972278
v -5.974144 -0.155846 -5.972278
v -3.974144 -0.155846 -5.972278
v -5.974144 -0.028160 -3.972278
v -3.974144 -0.028160 -3.972278
v -5.974144 -0.028160 -5.972278
v -3.974144 -0.028160 -5.972278
vn 0.0000 -1.0000 0.0000
vn 0.0000 1.0000 0.0000
vn 0.0000 0.0000 -1.0000
vn 0.0000 0.0000 1.0000
vn 1.0000 0.0000 0.0000
vn -1.0000 0.0000 0.0000
usemtl None
s off
f 11//7 10//7 9//7
f 14//8 15//8 13//8
f 11//9 16//9 12//9
f 10//10 13//10 9//10
f 12//11 14//11 10//11
f 9//12 15//12 11//12
f 11//7 12//7 10//7
f 14//8 16//8 15//8
f 11//9 15//9 16//9
f 10//10 14//10 13//10
f 12//11 16//11 14//11
f 9//12 13//12 15//12
o Plane.000_Plane.004
v 4.014904 -0.155846 -4.049222
v 6.014904 -0.155846 -4.049222
v 4.014904 -0.155846 -6.049222
v 6.014904 -0.155846 -6.049222
v 4.014904 -0.028160 -4.049222
v 6.014904 -0.028160 -4.049222
v 4.014904 -0.028160 -6.049222
v 6.014904 -0.028160 -6.049222
vn 0.0000 -1.0000 0.0000
vn 0.0000 1.0000 0.0000
vn 0.0000 0.0000 -1.0000
vn 0.0000 0.0000 1.0000
vn 1.0000 0.0000 0.0000
vn -1.0000 0.0000 0.0000
usemtl None
s off
f 19//13 18//13 17//13
f 22//14 23//14 21//14
f 19//15 24//15 20//15
f 18//16 21//16 17//16
f 20//17 22//17 18//17
f 17//18 23//18 19//18
f 19//13 20//13 18//13
f 22//14 24//14 23//14
f 19//15 23//15 24//15
f 18//16 22//16 21//16
f 20//17 24//17 22//17
f 17//18 21//18 23//18
o Plane.002
v -5.974144 -0.155846 5.932757
v -3.974144 -0.155846 5.932757
v -5.974144 -0.155846 3.932757
v -3.974144 -0.155846 3.932757
v -5.974144 -0.028160 5.932757
v -3.974144 -0.028160 5.932757
v -5.974144 -0.028160 3.932757
v -3.974144 -0.028160 3.932757
vn 0.0000 -1.0000 0.0000
vn 0.0000 1.0000 0.0000
vn 0.0000 0.0000 -1.0000
vn 0.0000 0.0000 1.0000
vn 1.0000 0.0000 0.0000
vn -1.0000 0.0000 0.0000
usemtl None
s off
f 27//19 26//19 25//19
f 30//20 31//20 29//20
f 27//21 32//21 28//21
f 26//22 29//22 25//22
f 28//23 30//23 26//23
f 25//24 31//24 27//24
f 27//19 28//19 26//19
f 30//20 32//20 31//20
f 27//21 31//21 32//21
f 26//22 30//22 29//22
f 28//23 32//23 30//23
f 25//24 29//24 31//24
