# Blender v2.78 (sub 0) OBJ File: ''
# www.blender.org
mtllib PC.mtl
o vsn_mesh_1_body_mesh_1_body_com_bm_pc02a_mat
v -0.335987 2.162302 0.290875
v -0.335987 1.624720 0.290875
v 0.000000 2.162302 0.290875
v 0.000000 1.624720 0.290875
v 0.335987 1.624720 0.290875
v 0.335987 2.162302 0.290875
v 0.527680 1.469367 -0.363219
v 0.221033 0.011988 -0.548086
v 0.221033 1.469367 -0.548086
v 0.527680 0.011988 -0.363220
v 0.221033 2.099144 -0.548086
v 0.624802 0.011988 -0.220611
v 0.527680 2.099143 -0.363219
v 0.624802 1.469367 -0.220611
v 0.624802 2.099143 -0.220610
v -0.221033 0.011988 -0.548086
v 0.201592 2.393165 -0.389448
v -0.221033 2.099144 -0.548086
v 0.000000 2.393165 -0.389448
v 0.624803 0.011988 0.168029
v 0.413082 2.393165 -0.241556
v 0.624803 1.469367 0.168029
v 0.510204 2.393165 -0.100796
v 0.624803 2.099143 0.168029
v -0.221033 1.469367 -0.548086
v -0.527680 1.469367 -0.363219
v -0.527680 0.011988 -0.363220
v 0.000000 2.566487 -0.067197
v -0.201592 2.393165 -0.389448
v 0.510204 2.393165 0.335987
v 0.383869 2.534931 0.025218
v -0.624803 1.469367 -0.220611
v -0.624803 0.011988 -0.220611
v 0.165775 2.557604 -0.038418
v -0.527680 2.099143 -0.363219
v 0.383869 2.516412 0.416624
v -0.624803 0.011988 0.168029
v 0.000000 2.585618 0.493237
v -0.165775 2.557604 -0.038418
v -0.624803 2.099143 -0.220610
v 0.170068 2.565984 0.474671
v -0.624803 1.469367 0.168029
v -0.413082 2.393165 -0.241556
v -0.170068 2.565984 0.474671
v -0.624803 2.099143 0.168029
v -0.383869 2.534931 0.025218
v -0.510204 2.393165 -0.100796
v -0.510204 2.393165 0.335987
v -0.383869 2.516412 0.416624
v -0.320852 2.438691 0.676869
v -0.383869 2.516412 0.416624
v -0.446465 2.326096 0.556482
v -0.170068 2.565984 0.474671
v -0.395220 2.267291 0.600454
v -0.142149 2.486079 0.709815
v -0.286810 2.383731 0.708109
v -0.510204 2.393165 0.335987
v 0.000000 2.585618 0.493237
v -0.459273 2.099143 0.474211
v -0.123537 2.423377 0.741055
v -0.525484 2.099143 0.416192
v -0.624803 2.099143 0.168029
v 0.000000 2.494109 0.709815
v 0.142149 2.486079 0.709815
v 0.170068 2.565984 0.474671
v -0.525484 1.469367 0.416192
v -0.624803 1.469367 0.168029
v 0.320852 2.438691 0.676869
v 0.123537 2.423377 0.741055
v 0.286810 2.383731 0.708109
v 0.000000 2.423666 0.741055
v -0.459273 1.469367 0.474211
v 0.383869 2.516412 0.416624
v 0.395220 2.267291 0.600454
v 0.446465 2.326096 0.556482
v 0.510204 2.393165 0.335987
v 0.525484 2.099143 0.416192
v 0.624803 2.099143 0.168029
v 0.459273 2.099143 0.474211
v 0.525484 1.469367 0.416192
v 0.624803 1.469367 0.168029
v 0.459273 1.469367 0.474211
v 0.000000 1.002786 0.474211
v -0.459273 1.002786 0.474211
v 0.000000 0.011988 0.474211
v -0.444257 1.252208 0.648132
v 0.459273 1.002786 0.474211
v 0.000000 1.252208 0.648132
v 0.444257 1.252208 0.648132
v -0.459273 0.011988 0.474211
v -0.406282 1.371324 0.882451
v 0.459273 0.011988 0.474211
v 0.406282 1.371324 0.882451
v 0.000000 1.371324 0.882451
v -0.403184 1.411028 0.882451
v 0.000000 1.411028 0.882451
v 0.403184 1.411028 0.882451
v -0.317339 1.493410 0.495966
v 0.000000 1.447474 0.817417
v 0.000000 1.493410 0.495966
v -0.317339 1.447474 0.817417
v 0.000000 1.469367 0.474211
v -0.335987 1.418301 0.831567
v -0.335987 1.469367 0.474211
v 0.317339 1.493410 0.495966
v 0.000000 1.418301 0.831567
v 0.317339 1.447474 0.817417
v 0.335987 1.418301 0.831567
v 0.335987 1.469367 0.474211
v 0.000000 2.162302 0.290875
v 0.000000 2.423666 0.290875
v -0.247074 2.393165 0.290875
v 0.278841 2.393165 0.290875
v -0.380038 2.269206 0.290875
v 0.380038 2.269798 0.290875
v -0.335987 2.162302 0.290875
v 0.335987 2.162302 0.290875
v -0.459273 2.099143 0.290875
v -0.335987 1.624720 0.290875
v -0.380038 2.269206 0.290875
v 0.335987 1.624720 0.290875
v 0.459273 2.099143 0.290875
v 0.380038 2.269798 0.290875
v -0.459273 1.516733 0.290875
v 0.000000 1.516733 0.290875
v 0.000000 1.624720 0.290875
v 0.459273 1.516733 0.290875
v 0.525484 1.469367 0.416192
v 0.624803 0.011988 0.168029
v 0.624803 1.469367 0.168029
v 0.525484 0.011988 0.416192
v 0.444257 1.252208 0.648132
v 0.459273 1.002786 0.474211
v 0.406282 1.371324 0.882451
v 0.403184 1.411028 0.882451
v 0.459273 1.469367 0.474211
v 0.459273 1.002786 0.474211
v 0.459273 0.011988 0.474211
v 0.525484 1.469367 0.416192
v -0.525484 1.469367 0.416192
v -0.624803 1.469367 0.168029
v -0.624803 0.011988 0.168029
v -0.525484 0.011988 0.416192
v -0.403184 1.411028 0.882451
v -0.459273 1.469367 0.474211
v -0.444257 1.252208 0.648132
v -0.406282 1.371324 0.882451
v -0.459273 1.002786 0.474211
v -0.403184 1.411028 0.882451
v -0.459273 0.011988 0.474211
v -0.459273 1.002786 0.474211
v -0.525484 1.469367 0.416192
v -0.459273 2.099143 0.474211
v -0.459273 1.469367 0.474211
v -0.459273 1.516733 0.290875
v -0.459273 2.099143 0.290875
v -0.380038 2.269206 0.290875
v -0.395220 2.267291 0.600454
v -0.247074 2.393165 0.290875
v -0.286810 2.383731 0.708109
v -0.380038 2.269206 0.290875
v -0.123537 2.423377 0.741055
v 0.000000 2.423666 0.290875
v 0.000000 2.423666 0.741055
v 0.123537 2.423377 0.741055
v 0.278841 2.393165 0.290875
v 0.286810 2.383731 0.708109
v 0.395220 2.267291 0.600454
v 0.380038 2.269798 0.290875
v 0.380038 2.269798 0.290875
v 0.459273 2.099143 0.474211
v 0.459273 2.099143 0.290875
v 0.459273 1.516733 0.290875
v 0.459273 1.469367 0.474211
v 0.000000 1.516733 0.290875
v 0.335987 1.469367 0.474211
v 0.459273 1.516733 0.290875
v 0.000000 1.469367 0.474211
v -0.335987 1.469367 0.474211
v -0.459273 1.516733 0.290875
v 0.459273 1.469367 0.474211
v -0.459273 1.469367 0.474211
v 0.335987 1.418301 0.831567
v -0.403184 1.411028 0.882451
v -0.335987 1.418301 0.831567
v -0.335987 1.469367 0.474211
v 0.403184 1.411028 0.882451
v 0.000000 1.411028 0.882451
v 0.000000 1.418301 0.831567
vt 0.1856 0.3588
vt 0.1856 0.0113
vt 0.5859 0.3588
vt 0.5859 0.0113
vt 0.9863 0.0113
vt 0.9863 0.3588
vt 0.5320 0.7659
vt 0.6227 0.4644
vt 0.6227 0.7689
vt 0.5308 0.4635
vt 0.6227 0.8717
vt 0.4752 0.4640
vt 0.5345 0.8711
vt 0.4746 0.7670
vt 0.4768 0.8713
vt 0.6227 0.4644
vt 0.6078 0.9242
vt 0.6227 0.8717
vt 0.6078 0.9242
vt 0.3543 0.4644
vt 0.5235 0.9238
vt 0.3543 0.7689
vt 0.4794 0.9238
vt 0.3543 0.8717
vt 0.6227 0.7689
vt 0.5332 0.7658
vt 0.5313 0.4634
vt 0.5128 0.9538
vt 0.6078 0.9242
vt 0.3543 0.9242
vt 0.4671 0.9478
vt 0.4746 0.7670
vt 0.4753 0.4642
vt 0.5128 0.9538
vt 0.5330 0.8709
vt 0.3578 0.9495
vt 0.3543 0.4644
vt 0.3543 0.9593
vt 0.5128 0.9538
vt 0.4768 0.8713
vt 0.3543 0.9531
vt 0.3543 0.7689
vt 0.5247 0.9238
vt 0.3543 0.9531
vt 0.3543 0.8717
vt 0.4671 0.9478
vt 0.4794 0.9238
vt 0.3543 0.9242
vt 0.3578 0.9495
vt 0.2502 0.6354
vt 0.3493 0.6354
vt 0.2539 0.6354
vt 0.3466 0.6354
vt 0.2282 0.6354
vt 0.2495 0.6354
vt 0.2265 0.6354
vt 0.3466 0.6354
vt 0.3466 0.6354
vt 0.2244 0.6354
vt 0.2244 0.6354
vt 0.2495 0.6354
vt 0.3466 0.6354
vt 0.2495 0.6354
vt 0.2495 0.6354
vt 0.3466 0.6354
vt 0.2495 0.6354
vt 0.3466 0.6354
vt 0.2502 0.6354
vt 0.2244 0.6354
vt 0.2265 0.6354
vt 0.2244 0.6354
vt 0.2244 0.6354
vt 0.3493 0.6354
vt 0.2282 0.6354
vt 0.2539 0.6354
vt 0.3466 0.6354
vt 0.2495 0.6354
vt 0.3466 0.6354
vt 0.2244 0.6354
vt 0.2495 0.6354
vt 0.3466 0.6354
vt 0.2244 0.6354
vt 0.0077 0.8735
vt 0.1301 0.8735
vt 0.0077 0.5913
vt 0.1301 0.9449
vt 0.1301 0.8735
vt 0.0077 0.9449
vt 0.1301 0.9449
vt 0.1301 0.5913
vt 0.1301 0.9850
vt 0.1301 0.5913
vt 0.1301 0.9850
vt 0.0077 0.9850
vt 0.1301 0.9863
vt 0.0077 0.9863
vt 0.1301 0.9863
vt 0.6553 0.6756
vt 0.8134 0.4977
vt 0.8134 0.6756
vt 0.6553 0.4977
vt 0.8134 0.6666
vt 0.6715 0.5071
vt 0.6715 0.6666
vt 0.9715 0.6756
vt 0.8134 0.5071
vt 0.9715 0.4977
vt 0.9553 0.5071
vt 0.9553 0.6666
vt 0.7351 0.8361
vt 0.6280 0.8361
vt 0.6405 0.7536
vt 0.6405 0.9291
vt 0.6913 0.7092
vt 0.6911 0.9629
vt 0.7351 0.7145
vt 0.7351 0.9555
vt 0.7610 0.6828
vt 0.9537 0.7145
vt 0.6913 0.7092
vt 0.9537 0.9555
vt 0.7610 0.9876
vt 0.6911 0.9629
vt 0.9903 0.6828
vt 0.9903 0.8361
vt 0.9537 0.8361
vt 0.9903 0.9876
vt 0.2493 0.9730
vt 0.3471 0.5913
vt 0.3471 0.9730
vt 0.2448 0.5913
vt 0.1748 0.9283
vt 0.2244 0.8690
vt 0.1235 0.9773
vt 0.1235 0.9863
vt 0.2425 0.9863
vt 0.2244 0.8737
vt 0.2244 0.5913
vt 0.2627 0.9730
vt 0.2493 0.9730
vt 0.3471 0.9730
vt 0.3471 0.5913
vt 0.2448 0.5913
vt 0.1235 0.9840
vt 0.2425 0.9863
vt 0.1748 0.9283
vt 0.1235 0.9773
vt 0.2244 0.8690
vt 0.1235 0.9863
vt 0.2244 0.5913
vt 0.2244 0.8737
vt 0.2627 0.9730
vt 0.1507 0.4564
vt 0.1507 0.3770
vt 0.2190 0.3832
vt 0.2190 0.4564
vt 0.2249 0.4795
vt 0.1066 0.4795
vt 0.2338 0.4969
vt 0.0728 0.4962
vt 0.2249 0.4795
vt 0.0615 0.5011
vt 0.2190 0.5011
vt 0.0615 0.5011
vt 0.0615 0.5011
vt 0.2338 0.4972
vt 0.0726 0.4963
vt 0.1066 0.4795
vt 0.2250 0.4796
vt 0.2250 0.4796
vt 0.1507 0.4564
vt 0.2190 0.4564
vt 0.2190 0.3832
vt 0.1507 0.3770
vt 0.2160 0.5040
vt 0.1524 0.4532
vt 0.2161 0.4450
vt 0.1519 0.4632
vt 0.1521 0.5423
vt 0.2160 0.5690
vt 0.1524 0.4420
vt 0.1524 0.5661
vt 0.0285 0.4586
vt 0.0108 0.5585
vt 0.0285 0.5495
vt 0.1524 0.5495
vt 0.0108 0.4495
vt 0.0108 0.5040
vt 0.0285 0.5040
vn 0.0000 -0.0000 1.0000
vn 0.6872 0.0000 -0.7264
vn 0.2679 0.0000 -0.9634
vn 0.2559 0.2351 -0.9377
vn 0.9556 0.0000 -0.2945
vn 0.6710 0.2413 -0.7011
vn 0.9262 0.2225 -0.3044
vn -0.2679 0.0000 -0.9634
vn 0.2155 0.6938 -0.6872
vn -0.2559 0.2351 -0.9377
vn 0.0000 0.7076 -0.7066
vn 1.0000 0.0000 0.0000
vn 0.5033 0.6840 -0.5280
vn 0.7749 0.5879 -0.2320
vn 0.9778 0.2096 0.0000
vn -0.6872 0.0000 -0.7264
vn 0.0000 0.9663 -0.2573
vn -0.2155 0.6938 -0.6872
vn 0.8083 0.5885 0.0160
vn 0.4348 0.8881 -0.1489
vn -0.9556 0.0000 -0.2945
vn 0.1389 0.9630 -0.2310
vn -0.6710 0.2413 -0.7011
vn 0.4380 0.8979 0.0425
vn -1.0000 0.0000 0.0000
vn 0.0000 0.9998 -0.0208
vn -0.1389 0.9630 -0.2310
vn -0.9262 0.2225 -0.3044
vn 0.1485 0.9889 0.0011
vn -0.5033 0.6840 -0.5280
vn -0.1485 0.9889 0.0011
vn -0.9778 0.2096 0.0000
vn -0.4348 0.8881 -0.1489
vn -0.7749 0.5879 -0.2320
vn -0.8083 0.5885 0.0160
vn -0.4380 0.8979 0.0425
vn -0.5601 0.5094 0.6532
vn -0.6200 0.6912 0.3712
vn -0.8306 0.1656 0.5317
vn -0.2330 0.9120 0.3376
vn -0.7181 -0.1066 0.6877
vn -0.1856 0.7106 0.6786
vn -0.4727 0.1982 0.8586
vn -0.8835 0.2977 0.3616
vn 0.0000 0.9350 0.3546
vn -0.6648 -0.1307 0.7355
vn -0.1293 0.4042 0.9055
vn -0.8459 0.0137 0.5331
vn -0.9269 0.0570 0.3710
vn 0.0000 0.7239 0.6898
vn 0.1856 0.7106 0.6786
vn 0.2330 0.9120 0.3376
vn -0.8162 0.0000 0.5777
vn -0.9284 0.0000 0.3716
vn 0.5601 0.5094 0.6532
vn 0.1293 0.4042 0.9055
vn 0.4727 0.1982 0.8586
vn 0.0000 0.4054 0.9141
vn -0.6590 0.0000 0.7521
vn 0.6200 0.6912 0.3712
vn 0.7181 -0.1066 0.6877
vn 0.8306 0.1656 0.5317
vn 0.8835 0.2977 0.3616
vn 0.8459 0.0137 0.5331
vn 0.9269 0.0570 0.3710
vn 0.6648 -0.1307 0.7355
vn 0.8162 0.0000 0.5777
vn 0.9284 0.0000 0.3716
vn 0.6590 0.0000 0.7521
vn 0.0000 -0.2998 0.9540
vn 0.0000 -0.2950 0.9555
vn 0.0000 -0.7439 0.6683
vn 0.0000 -0.7544 0.6564
vn 0.0000 -0.5585 0.8295
vn 0.0000 -0.5229 0.8524
vn -0.3695 0.8945 -0.2516
vn 0.0000 0.8077 0.5896
vn 0.0000 0.9405 -0.3398
vn -0.3695 0.7882 0.4921
vn 0.0000 0.6709 -0.7415
vn -0.5097 0.6167 0.5999
vn -0.5097 0.7601 -0.4031
vn 0.3695 0.8945 -0.2516
vn 0.0000 0.4364 0.8997
vn 0.3695 0.7882 0.4921
vn 0.5097 0.6167 0.5999
vn 0.5097 0.7601 -0.4031
vn 0.9326 0.1524 0.3272
vn 0.9664 -0.1173 0.2286
vn 0.9654 -0.1075 0.2375
vn 0.9683 0.0096 0.2495
vn 0.9528 0.1427 0.2678
vn 0.1391 0.9774 0.1588
vn -0.9326 0.1524 0.3272
vn -0.1391 0.9774 0.1588
vn -0.9664 -0.1173 0.2286
vn -0.9683 0.0096 0.2495
vn -0.9654 -0.1075 0.2375
vn -0.9622 0.0751 0.2618
vn 0.9716 -0.2362 0.0161
vn 0.9763 -0.2163 0.0000
vn 0.9149 -0.4031 0.0214
vn 0.7842 -0.6187 0.0457
vn 0.4229 -0.9056 0.0321
vn 0.4342 -0.9005 0.0210
vn 0.6816 -0.7311 0.0289
vn 0.1124 -0.9936 0.0063
vn 0.0057 -0.9996 0.0259
vn 0.0000 -1.0000 0.0000
vn -0.1083 -0.9941 -0.0002
vn -0.4754 -0.8795 0.0218
vn -0.4368 -0.8995 -0.0120
vn -0.8093 -0.5871 0.0177
vn -0.7727 -0.6339 0.0327
vn -0.9153 -0.4023 0.0211
vn -0.9716 -0.2358 0.0159
vn -0.9765 -0.2156 0.0000
vn 0.0000 0.9682 0.2501
vn 0.0000 0.9768 0.2142
vn 0.0000 0.9801 0.1985
vn 0.0000 0.9899 0.1415
usemtl com_bm_pc02a_mat
s off
f 1/1/1 2/2/1 3/3/1
f 3/3/1 2/2/1 4/4/1
f 4/4/1 5/5/1 3/3/1
f 3/3/1 5/5/1 6/6/1
usemtl com_bm_pc02_mat
s 1
f 7/7/2 8/8/3 9/9/3
f 7/7/2 10/10/2 8/8/3
f 7/7/2 9/9/3 11/11/4
f 7/7/2 12/12/5 10/10/2
f 7/7/2 11/11/4 13/13/6
f 7/7/2 14/14/5 12/12/5
f 7/7/2 13/13/6 15/15/7
f 7/7/2 15/15/7 14/14/5
f 8/8/3 16/16/8 9/9/3
f 11/11/4 17/17/9 13/13/6
f 11/11/4 9/9/3 18/18/10
f 11/11/4 19/19/11 17/17/9
f 11/11/4 18/18/10 19/19/11
f 12/12/5 14/14/5 20/20/12
f 15/15/7 13/13/6 21/21/13
f 15/15/7 22/22/12 14/14/5
f 15/15/7 21/21/13 23/23/14
f 15/15/7 24/24/15 22/22/12
f 15/15/7 23/23/14 24/24/15
f 22/22/12 20/20/12 14/14/5
f 13/13/6 17/17/9 21/21/13
f 16/16/8 25/25/8 9/9/3
f 16/16/8 26/26/16 25/25/8
f 16/16/8 27/27/16 26/26/16
f 25/25/8 18/18/10 9/9/3
f 25/25/8 26/26/16 18/18/10
f 19/19/11 28/28/17 17/17/9
f 19/19/11 18/18/10 29/29/18
f 19/19/11 29/29/18 28/28/17
f 23/23/14 30/30/19 24/24/15
f 23/23/14 21/21/13 31/31/20
f 23/23/14 31/31/20 30/30/19
f 27/27/16 32/32/21 26/26/16
f 27/27/16 33/33/21 32/32/21
f 17/17/9 28/28/17 34/34/22
f 17/17/9 34/34/22 21/21/13
f 21/21/13 34/34/22 31/31/20
f 18/18/10 35/35/23 29/29/18
f 18/18/10 26/26/16 35/35/23
f 30/30/19 31/31/20 36/36/24
f 33/33/21 37/37/25 32/32/21
f 28/28/17 38/38/26 34/34/22
f 28/28/17 29/29/18 39/39/27
f 28/28/17 39/39/27 38/38/26
f 26/26/16 40/40/28 35/35/23
f 26/26/16 32/32/21 40/40/28
f 31/31/20 41/41/29 36/36/24
f 31/31/20 34/34/22 41/41/29
f 41/41/29 34/34/22 38/38/26
f 37/37/25 42/42/25 32/32/21
f 29/29/18 43/43/30 39/39/27
f 29/29/18 35/35/23 43/43/30
f 35/35/23 40/40/28 43/43/30
f 38/38/26 39/39/27 44/44/31
f 42/42/25 45/45/32 32/32/21
f 32/32/21 45/45/32 40/40/28
f 43/43/30 46/46/33 39/39/27
f 43/43/30 40/40/28 47/47/34
f 43/43/30 47/47/34 46/46/33
f 40/40/28 45/45/32 47/47/34
f 39/39/27 46/46/33 44/44/31
f 45/45/32 48/48/35 47/47/34
f 47/47/34 48/48/35 46/46/33
f 44/44/31 46/46/33 49/49/36
f 49/49/36 46/46/33 48/48/35
f 50/50/37 51/51/38 52/52/39
f 50/50/37 53/53/40 51/51/38
f 50/50/37 52/52/39 54/54/41
f 50/50/37 55/55/42 53/53/40
f 50/50/37 54/54/41 56/56/43
f 50/50/37 56/56/43 55/55/42
f 51/51/38 57/57/44 52/52/39
f 53/53/40 55/55/42 58/58/45
f 54/54/41 52/52/39 59/59/46
f 56/56/43 60/60/47 55/55/42
f 57/57/44 61/61/48 52/52/39
f 57/57/44 62/62/49 61/61/48
f 52/52/39 61/61/48 59/59/46
f 58/58/45 55/55/42 63/63/50
f 58/58/45 63/63/50 64/64/51
f 58/58/45 64/64/51 65/65/52
f 55/55/42 60/60/47 63/63/50
f 62/62/49 66/66/53 61/61/48
f 62/62/49 67/67/54 66/66/53
f 61/61/48 66/66/53 59/59/46
f 64/64/51 68/68/55 65/65/52
f 64/64/51 63/63/50 69/69/56
f 64/64/51 70/70/57 68/68/55
f 64/64/51 69/69/56 70/70/57
f 60/60/47 71/71/58 63/63/50
f 63/63/50 71/71/58 69/69/56
f 66/66/53 72/72/59 59/59/46
f 65/65/52 68/68/55 73/73/60
f 70/70/57 74/74/61 68/68/55
f 73/73/60 68/68/55 75/75/62
f 73/73/60 75/75/62 76/76/63
f 68/68/55 74/74/61 75/75/62
f 76/76/63 75/75/62 77/77/64
f 76/76/63 77/77/64 78/78/65
f 74/74/61 79/79/66 75/75/62
f 75/75/62 79/79/66 77/77/64
f 78/78/65 77/77/64 80/80/67
f 78/78/65 80/80/67 81/81/68
f 77/77/64 79/79/66 80/80/67
f 79/79/66 82/82/69 80/80/67
f 83/83/70 84/84/71 85/85/1
f 83/83/70 86/86/72 84/84/71
f 83/83/70 85/85/1 87/87/71
f 83/83/70 88/88/73 86/86/72
f 83/83/70 87/87/71 89/89/72
f 83/83/70 89/89/72 88/88/73
f 84/84/71 90/90/1 85/85/1
f 86/86/72 88/88/73 91/91/74
f 87/87/71 85/85/1 92/92/1
f 89/89/72 93/93/74 88/88/73
f 91/91/74 88/88/73 94/94/75
f 91/91/74 94/94/75 95/95/1
f 88/88/73 93/93/74 94/94/75
f 95/95/1 94/94/75 96/96/1
f 93/93/74 97/97/1 94/94/75
f 94/94/75 97/97/1 96/96/1
f 98/98/76 99/99/77 100/100/78
f 98/98/76 101/101/79 99/99/77
f 98/98/76 100/100/78 102/102/80
f 98/98/76 103/103/81 101/101/79
f 98/98/76 102/102/80 104/104/82
f 98/98/76 104/104/82 103/103/81
f 99/99/77 105/105/83 100/100/78
f 99/99/77 101/101/79 106/106/84
f 99/99/77 107/107/85 105/105/83
f 99/99/77 106/106/84 107/107/85
f 101/101/79 103/103/81 106/106/84
f 100/100/78 105/105/83 102/102/80
f 107/107/85 106/106/84 108/108/86
f 107/107/85 109/109/87 105/105/83
f 107/107/85 108/108/86 109/109/87
f 109/109/87 102/102/80 105/105/83
f 110/110/1 111/111/1 112/112/1
f 110/110/1 113/113/1 111/111/1
f 110/110/1 112/112/1 114/114/1
f 110/110/1 115/115/1 113/113/1
f 110/110/1 114/114/1 116/116/1
f 110/110/1 117/117/1 115/115/1
f 116/116/1 118/118/1 119/119/1
f 116/116/1 120/120/1 118/118/1
f 117/117/1 121/121/1 122/122/1
f 117/117/1 122/122/1 123/123/1
f 119/119/1 118/118/1 124/124/1
f 119/119/1 124/124/1 125/125/1
f 119/119/1 125/125/1 126/126/1
f 126/126/1 125/125/1 121/121/1
f 122/122/1 121/121/1 127/127/1
f 127/127/1 121/121/1 125/125/1
f 128/128/88 129/129/68 130/130/68
f 128/128/88 131/131/67 129/129/68
f 128/128/88 132/132/89 133/133/90
f 128/128/88 134/134/91 132/132/89
f 128/128/88 135/135/92 134/134/91
f 128/128/88 136/136/93 135/135/92
f 131/131/67 137/137/69 138/138/69
f 131/131/67 139/139/69 137/137/69
f 140/140/94 141/141/54 142/142/54
f 140/140/94 142/142/54 143/143/53
f 140/140/94 144/144/95 145/145/95
f 140/140/94 146/146/96 147/147/97
f 140/140/94 148/148/98 146/146/96
f 140/140/94 147/147/97 149/149/99
f 143/143/53 150/150/59 151/151/59
f 143/143/53 151/151/59 152/152/59
f 153/153/100 154/154/12 155/155/12
f 153/153/100 155/155/12 156/156/101
f 153/153/100 156/156/101 157/157/102
f 153/153/100 157/157/102 158/158/103
f 158/158/103 159/159/104 160/160/105
f 158/158/103 161/161/106 159/159/104
f 160/160/105 159/159/104 162/162/107
f 159/159/104 163/163/108 162/162/107
f 163/163/108 164/164/109 162/162/107
f 163/163/108 165/165/110 164/164/109
f 163/163/108 166/166/111 165/165/110
f 166/166/111 167/167/112 165/165/110
f 166/166/111 168/168/113 167/167/112
f 166/166/111 169/169/114 168/168/113
f 168/168/113 170/170/115 171/171/116
f 170/170/115 172/172/117 171/171/116
f 172/172/117 173/173/25 171/171/116
f 173/173/25 174/174/25 171/171/116
f 175/175/118 176/176/119 177/177/118
f 175/175/118 178/178/118 176/176/119
f 175/175/118 179/179/118 178/178/118
f 175/175/118 180/180/118 179/179/118
f 177/177/118 176/176/119 181/181/120
f 180/180/118 182/182/120 179/179/118
f 176/176/119 183/183/121 181/181/120
f 182/182/120 184/184/121 185/185/121
f 182/182/120 185/185/121 186/186/121
f 183/183/121 187/187/121 181/181/120
f 183/183/121 188/188/121 187/187/121
f 183/183/121 189/189/121 188/188/121
f 188/188/121 185/185/121 184/184/121
f 188/188/121 189/189/121 185/185/121
