# Blender v2.78 (sub 0) OBJ File: ''
# www.blender.org
mtllib PC2.mtl
o com_bm_pc02_com_bm_pc02_com_bm_pc02_pc03.tga
v 0.637498 0.113839 0.318749
v -0.637498 0.656670 0.318749
v -0.637498 0.113839 0.318749
v 0.637498 0.022768 0.273213
v -0.637498 0.113839 0.318749
v 0.637498 0.022768 0.273213
v 0.637498 0.113839 0.318749
v -0.637498 0.022768 0.273213
v -0.637498 0.022768 0.273213
v -0.683033 0.113839 0.273213
v -0.683033 1.866958 0.273214
v 0.637498 0.656670 0.318749
v 0.637498 1.866958 0.318749
v -0.637498 1.866958 0.318749
v -0.637492 2.026098 0.066183
v -0.683028 2.003565 0.049649
v -0.637498 2.049100 0.017282
v -0.683033 2.003565 -0.273216
v -0.637498 2.049100 -0.273213
v 0.637498 2.049100 0.017282
v 0.637495 2.026098 0.066186
v 0.637498 2.049100 -0.273213
v -0.637498 2.003565 -0.318751
v 0.637501 2.003565 -0.318749
v -0.637498 1.866958 -0.318750
v -0.683033 1.866958 -0.273215
v 0.637499 1.866958 -0.318749
v -0.637498 0.113839 -0.318750
v 0.637498 0.113839 -0.318750
v 0.637498 0.022768 -0.273214
v -0.637498 0.022768 -0.273214
v 0.331569 1.181697 0.330133
v 0.433784 1.343299 0.330133
v 0.297276 1.264486 0.330133
v 0.483824 1.222494 0.330133
v 0.354183 1.447037 0.330133
v 0.242725 1.335578 0.330133
v 0.250446 1.526638 0.330133
v 0.171632 1.390130 0.330133
v 0.129640 1.576677 0.330133
v 0.088844 1.424422 0.330133
v 0.000000 1.593744 0.330133
v 0.000000 1.436118 0.330133
v -0.129640 1.576677 0.330133
v -0.088843 1.424422 0.330133
v -0.250445 1.526638 0.330133
v -0.171632 1.390130 0.330133
v -0.354183 1.447037 0.330133
v -0.242725 1.335578 0.330133
v -0.433784 1.343299 0.330133
v -0.297276 1.264486 0.330133
v -0.483824 1.222494 0.330133
v -0.331569 1.181697 0.330133
v -0.500891 1.092853 0.330133
v -0.343265 1.092853 0.330133
v 0.500891 1.092853 0.330133
v 0.343265 1.092853 0.330133
v 0.165432 1.137181 0.330133
v 0.247760 1.235898 0.330133
v 0.148322 1.178487 0.330133
v 0.276341 1.166899 0.330133
v 0.202296 1.295149 0.330133
v 0.121105 1.213958 0.330133
v 0.143045 1.340614 0.330133
v 0.085634 1.241176 0.330133
v 0.074045 1.369194 0.330133
v 0.044327 1.258286 0.330133
v 0.000000 1.378942 0.330133
v 0.000000 1.264121 0.330133
v -0.074045 1.369194 0.330133
v -0.044327 1.258286 0.330133
v -0.143045 1.340614 0.330133
v -0.085634 1.241176 0.330133
v -0.202296 1.295149 0.330133
v -0.121105 1.213958 0.330133
v -0.247760 1.235898 0.330133
v -0.148322 1.178487 0.330133
v -0.276341 1.166899 0.330133
v -0.165432 1.137181 0.330133
v -0.286089 1.092853 0.330133
v -0.171268 1.092853 0.330133
v 0.286089 1.092853 0.330133
v 0.171268 1.092853 0.330133
v -0.683033 0.113839 -0.273213
v 0.683028 2.003565 0.049649
v 0.683033 1.866958 0.273214
v 0.683033 2.003565 -0.273216
v 0.683033 0.113839 0.273213
v 0.683033 1.866958 -0.273215
v 0.683033 0.113839 -0.273213
v -0.344781 1.902878 0.283097
v -0.344777 2.014773 0.105510
v -0.562521 1.902877 0.283097
v -0.562517 2.014773 0.105510
v 0.475001 2.661849 -0.196290
v -0.475001 2.661849 -0.196296
v 0.475001 2.147886 -0.086966
v -0.475001 2.147886 -0.086972
v 0.523659 2.977299 -0.276451
v 0.481236 2.935798 -0.267630
v 0.546427 2.932763 -0.266985
v 0.489507 2.919619 -0.264191
v 0.489507 2.116156 -0.093410
v 0.546427 2.060484 -0.081560
v 0.478123 2.999566 -0.281184
v 0.464688 2.943890 -0.269350
v -0.464688 2.943890 -0.269350
v -0.478123 2.999566 -0.281184
v -0.481236 2.935798 -0.267630
v -0.523659 2.977299 -0.276452
v -0.546427 2.932768 -0.266975
v -0.489507 2.919622 -0.264192
v -0.546427 2.060484 -0.081566
v -0.489507 2.116157 -0.093410
v -0.523659 2.958427 -0.365240
v -0.478123 2.980694 -0.369973
v -0.546427 2.913893 -0.355774
v 0.478123 2.980694 -0.369973
v 0.523659 2.958425 -0.365240
v 0.546427 2.913891 -0.355774
v 0.546427 2.060484 -0.174360
v -0.546427 2.060484 -0.174366
v 0.481236 2.916926 -0.356419
v 0.489507 2.900747 -0.352980
v 0.464688 2.925018 -0.358139
v -0.464688 2.925018 -0.358139
v -0.481236 2.916926 -0.356419
v -0.489507 2.900747 -0.352980
v -0.489507 2.097285 -0.182199
v 0.489507 2.097284 -0.182199
v 0.628391 2.060484 -0.256324
v -0.628391 2.060484 -0.256330
v -0.628391 2.060484 0.000398
v 0.628391 2.060484 0.000404
v -0.625214 0.022768 0.265012
v 0.604202 0.022768 0.265012
v -0.625214 0.022768 -0.258886
v -0.000000 1.436118 -0.321215
v -0.000000 1.593744 -0.321215
v -0.088844 1.424422 -0.321215
v 0.604197 0.022768 -0.258886
v -0.129640 1.576677 -0.321215
v -0.171632 1.390130 -0.321215
v -0.250446 1.526638 -0.321215
v -0.242725 1.335578 -0.321215
v -0.354183 1.447037 -0.321215
v -0.483824 1.222494 -0.321215
v -0.297276 1.264486 -0.321215
v -0.433784 1.343299 -0.321215
v -0.331569 1.181697 -0.321215
v 0.129640 1.576677 -0.321215
v 0.088844 1.424422 -0.321215
v 0.250446 1.526638 -0.321215
v 0.171632 1.390130 -0.321215
v 0.354183 1.447037 -0.321215
v 0.242725 1.335578 -0.321215
v 0.433784 1.343299 -0.321215
v 0.297276 1.264486 -0.321215
v 0.483824 1.222494 -0.321215
v 0.331569 1.181697 -0.321215
v 0.500891 1.092853 -0.321215
v 0.343265 1.092853 -0.321215
v -0.500891 1.092853 -0.321215
v -0.343265 1.092853 -0.321215
v -0.165432 1.137181 -0.321215
v -0.247760 1.235898 -0.321215
v -0.148322 1.178487 -0.321215
v -0.276341 1.166899 -0.321215
v -0.202296 1.295149 -0.321215
v -0.121105 1.213958 -0.321215
v -0.143045 1.340614 -0.321215
v -0.085634 1.241176 -0.321215
v -0.074045 1.369194 -0.321215
v -0.044327 1.258286 -0.321215
v -0.000000 1.378942 -0.321215
v -0.000000 1.264121 -0.321215
v 0.074045 1.369194 -0.321215
v 0.044327 1.258286 -0.321215
v 0.143045 1.340614 -0.321215
v 0.085634 1.241176 -0.321215
v 0.202296 1.295149 -0.321215
v 0.121105 1.213958 -0.321215
v 0.247760 1.235898 -0.321215
v 0.148322 1.178487 -0.321215
v 0.276341 1.166899 -0.321215
v 0.165432 1.137181 -0.321215
v 0.286089 1.092853 -0.321215
v 0.171268 1.092853 -0.321215
v -0.286089 1.092853 -0.321215
v -0.171268 1.092853 -0.321215
v -0.562521 1.912233 0.288993
v -0.562517 2.024129 0.111406
v -0.344777 2.024129 0.111406
v -0.344781 1.912234 0.288993
vt 0.4593 0.2684
vt 0.0190 0.2684
vt 0.4593 0.0249
vt 0.0190 0.0249
vt 0.9923 0.0207
vt 0.6556 0.1463
vt 0.6556 0.0207
vt 0.9923 0.0081
vt 0.6556 0.0207
vt 0.9923 0.0081
vt 0.9923 0.0207
vt 0.6556 0.0080
vt 0.6556 0.0080
vt 0.6386 0.0207
vt 0.6386 0.2994
vt 0.9923 0.1463
vt 0.9923 0.2994
vt 0.6556 0.2994
vt 0.6556 0.3782
vt 0.6386 0.3808
vt 0.6556 0.3925
vt 0.6386 0.4692
vt 0.6556 0.4692
vt 0.9923 0.3925
vt 0.9923 0.3782
vt 0.9923 0.4692
vt 0.6556 0.4862
vt 0.6386 0.4777
vt 0.9923 0.4862
vt 0.6556 0.5283
vt 0.6386 0.5283
vt 0.6386 0.4862
vt 0.9923 0.5283
vt 0.6556 0.5387
vt 0.9923 0.5387
vt 0.9923 0.5431
vt 0.6556 0.5431
vt 0.6199 0.3689
vt 0.6011 0.4024
vt 0.6011 0.3689
vt 0.6199 0.4024
vt 0.5875 0.4024
vt 0.5875 0.3689
vt 0.5740 0.4024
vt 0.5740 0.3689
vt 0.5604 0.4024
vt 0.5604 0.3689
vt 0.5469 0.4024
vt 0.5469 0.3689
vt 0.5333 0.4024
vt 0.5333 0.3689
vt 0.5198 0.4024
vt 0.5198 0.3689
vt 0.5062 0.4024
vt 0.5062 0.3689
vt 0.4927 0.4024
vt 0.4927 0.3689
vt 0.4753 0.4024
vt 0.4753 0.3689
vt 0.4620 0.4024
vt 0.4620 0.3689
vt 0.6318 0.4024
vt 0.6318 0.3689
vt 0.6199 0.3437
vt 0.6011 0.3689
vt 0.6011 0.3437
vt 0.6199 0.3689
vt 0.5875 0.3689
vt 0.5875 0.3437
vt 0.5740 0.3689
vt 0.5740 0.3437
vt 0.5604 0.3689
vt 0.5604 0.3437
vt 0.5469 0.3689
vt 0.5469 0.3437
vt 0.5333 0.3689
vt 0.5333 0.3437
vt 0.5198 0.3689
vt 0.5198 0.3437
vt 0.5062 0.3689
vt 0.5062 0.3437
vt 0.4927 0.3689
vt 0.4927 0.3437
vt 0.4753 0.3689
vt 0.4753 0.3437
vt 0.4620 0.3689
vt 0.4620 0.3437
vt 0.6318 0.3689
vt 0.6318 0.3437
vt 0.6253 0.0207
vt 0.4687 0.0207
vt 0.6253 0.3004
vt 0.6253 0.0080
vt 0.4687 0.0080
vt 0.4687 0.3004
vt 0.5328 0.3396
vt 0.6253 0.3396
vt 0.6386 0.3808
vt 0.6556 0.3782
vt 0.6386 0.2994
vt 0.6556 0.3925
vt 0.6386 0.4692
vt 0.6556 0.4692
vt 0.6556 0.2994
vt 0.6556 0.1463
vt 0.6386 0.0207
vt 0.6556 0.0207
vt 0.6556 0.0080
vt 0.6386 0.4777
vt 0.6556 0.4862
vt 0.6386 0.4862
vt 0.6386 0.5283
vt 0.6556 0.5283
vt 0.4687 0.0207
vt 0.6253 0.0207
vt 0.4687 0.3004
vt 0.6253 0.0080
vt 0.4687 0.0080
vt 0.6253 0.3004
vt 0.5328 0.3396
vt 0.6253 0.3396
vt 0.6386 0.0207
vt 0.6556 0.0207
vt 0.6386 0.2994
vt 0.6556 0.0080
vt 0.6556 0.2994
vt 0.6556 0.0207
vt 0.6386 0.0207
vt 0.6556 0.2994
vt 0.6556 0.0080
vt 0.6386 0.2994
vt 0.6064 0.4045
vt 0.4663 0.4045
vt 0.6064 0.5395
vt 0.4663 0.5395
vt 0.5198 0.3689
vt 0.5062 0.4024
vt 0.5062 0.3689
vt 0.5198 0.4024
vt 0.5333 0.3689
vt 0.5333 0.4024
vt 0.5469 0.3689
vt 0.5469 0.4024
vt 0.5604 0.3689
vt 0.5604 0.4024
vt 0.5740 0.3689
vt 0.5740 0.4024
vt 0.5875 0.3689
vt 0.5875 0.4024
vt 0.6011 0.3689
vt 0.6011 0.4024
vt 0.6199 0.4024
vt 0.6199 0.3689
vt 0.4927 0.4024
vt 0.4927 0.3689
vt 0.4753 0.4024
vt 0.4753 0.3689
vt 0.4620 0.4024
vt 0.4620 0.3689
vt 0.6318 0.4024
vt 0.6318 0.3689
vt 0.6199 0.3437
vt 0.6011 0.3689
vt 0.6011 0.3437
vt 0.6199 0.3689
vt 0.5875 0.3689
vt 0.5875 0.3437
vt 0.5740 0.3689
vt 0.5740 0.3437
vt 0.5604 0.3689
vt 0.5604 0.3437
vt 0.5469 0.3689
vt 0.5469 0.3437
vt 0.5333 0.3689
vt 0.5333 0.3437
vt 0.5198 0.3689
vt 0.5198 0.3437
vt 0.5062 0.3689
vt 0.5062 0.3437
vt 0.4927 0.3689
vt 0.4927 0.3437
vt 0.4753 0.3689
vt 0.4753 0.3437
vt 0.4620 0.3689
vt 0.4620 0.3437
vt 0.6318 0.3689
vt 0.6318 0.3437
vt 0.6064 0.4045
vt 0.6064 0.5395
vt 0.4663 0.4045
vt 0.4663 0.5395
vt 4.2983 2.1040
vt 5.1639 2.1040
vt 4.2983 2.9965
vt 5.1639 2.9965
vt 0.1982 0.9888
vt 0.1983 0.9563
vt 0.1956 0.9888
vt 0.1953 0.9563
vt 0.1369 0.9563
vt 0.1373 0.9888
vt 0.2006 0.9888
vt 0.2013 0.9563
vt 0.3009 0.9563
vt 0.3016 0.9888
vt 0.3039 0.9563
vt 0.3039 0.9888
vt 0.3063 0.9888
vt 0.3069 0.9563
vt 0.0570 0.9888
vt 0.0598 0.9563
vt 0.3970 0.9563
vt 0.4010 0.9888
vt 0.2449 0.9888
vt 0.2768 0.9888
vt 0.2449 0.9669
vt 0.2768 0.9669
vt 0.2130 0.9669
vt 0.2130 0.9888
vt 0.3087 0.9669
vt 0.3087 0.9888
vt 0.3406 0.9888
vt 0.3406 0.9669
vt 0.3726 0.9888
vt 0.3726 0.9669
vt 0.4038 0.9669
vt 0.4045 0.9888
vt 0.1506 0.9669
vt 0.1492 0.9888
vt 0.1982 0.9888
vt 0.1956 0.9888
vt 0.1983 0.9449
vt 0.1951 0.9449
vt 0.2006 0.9888
vt 0.2017 0.9449
vt 0.3016 0.9888
vt 0.3006 0.9449
vt 0.3039 0.9449
vt 0.3039 0.9888
vt 0.3063 0.9888
vt 0.3073 0.9449
vt 0.3956 0.9449
vt 0.3989 0.9888
vt 0.1367 0.9449
vt 0.1386 0.9888
vt 0.0607 0.9449
vt 0.0535 0.8524
vt 0.3977 0.8717
vt 0.0569 0.8717
vt 0.3879 0.8817
vt 0.0667 0.8817
vt 0.4028 0.8524
vt 0.4011 0.2868
vt 0.0535 0.2868
vt 0.2011 0.9724
vt 0.2048 0.9011
vt 0.1408 0.9724
vt 0.1374 0.9011
vt 0.1332 0.9011
vt 0.1364 0.9724
vt 0.2003 0.9011
vt 0.2044 0.9724
vt 0.2704 0.9724
vt 0.2753 0.9011
vt 0.3416 0.9403
vt 0.3416 0.9400
vt 0.3351 0.9403
vt 0.3350 0.9400
vt 0.3416 0.9255
vt 0.3350 0.9255
vt 0.3352 0.9405
vt 0.3414 0.9405
vn -0.0000 0.2081 0.9781
vn 0.3595 -0.2070 0.9099
vn -0.3827 -0.0000 0.9239
vn -0.3595 -0.2070 0.9099
vn 0.5998 -0.5296 0.5998
vn 0.0000 -0.4472 0.8944
vn -0.5998 -0.5296 0.5998
vn -0.9099 -0.2070 0.3595
vn -0.8450 0.3260 0.4239
vn 0.3827 -0.0000 0.9239
vn 0.3290 0.4299 0.8408
vn -0.3290 0.4299 0.8408
vn -0.2653 0.8464 0.4617
vn -0.8602 0.4755 0.1842
vn -0.3400 0.9237 0.1767
vn -0.8756 0.3416 -0.3416
vn -0.3416 0.8756 -0.3416
vn 0.3400 0.9237 0.1767
vn 0.2653 0.8464 0.4617
vn 0.3416 0.8756 -0.3416
vn -0.3416 0.3416 -0.8756
vn 0.3416 0.3416 -0.8756
vn -0.3827 -0.0000 -0.9239
vn -0.9239 0.0000 -0.3827
vn 0.3827 -0.0000 -0.9239
vn -0.3595 -0.2070 -0.9099
vn 0.3595 -0.2070 -0.9099
vn 0.5998 -0.5296 -0.5998
vn -0.5998 -0.5296 -0.5998
vn -0.0000 -0.0000 1.0000
vn -0.9099 -0.2070 -0.3595
vn 0.8602 0.4754 0.1842
vn 0.8450 0.3260 0.4239
vn 0.8756 0.3416 -0.3416
vn 0.9099 -0.2070 0.3595
vn 0.9239 0.0000 -0.3827
vn 0.9099 -0.2070 -0.3595
vn 0.0000 -0.8461 -0.5331
vn -0.0000 -0.0000 -1.0000
vn -0.0000 0.8461 0.5331
vn -0.7071 -0.3770 0.5982
vn 0.7071 -0.3770 0.5983
vn -0.7071 0.3770 -0.5983
vn 0.7071 0.3769 -0.5982
vn 0.7071 0.3769 -0.5983
vn 0.0000 1.0000 0.0000
vn 0.5419 0.6637 0.5157
vn -0.0000 0.2079 0.9781
vn 0.7321 0.3061 0.6085
vn -0.0001 0.2080 0.9781
vn 0.2502 0.9261 0.2824
vn 0.1728 0.8531 0.4923
vn 0.0000 0.2079 0.9782
vn -0.1728 0.8531 0.4923
vn -0.5419 0.6637 0.5156
vn -0.7321 0.3061 0.6086
vn 0.0001 0.2079 0.9782
vn -0.2502 0.9261 0.2824
vn 0.0001 0.2080 0.9781
vn -0.5419 0.3966 -0.7410
vn -0.1728 0.5792 -0.7967
vn -0.7321 0.0321 -0.6804
vn 0.1728 0.5792 -0.7967
vn 0.5419 0.3965 -0.7410
vn 0.7321 0.0321 -0.6804
vn 0.3578 0.8813 -0.3087
vn -0.3578 0.8813 -0.3087
vn -0.0000 -0.2079 -0.9781
vn -0.0001 -0.2080 -0.9781
vn 0.0001 -0.2081 -0.9781
usemtl com_bm_pc02_pc02.tga
s 1
f 95/1/1 96/2/1 97/3/1
f 97/3/1 96/2/1 98/4/1
usemtl com_bm_pc02_pc03.tga
f 1/5/2 2/6/3 3/7/4
f 3/7/4 4/8/5 1/5/2
f 5/9/6 6/10/6 7/11/6
f 8/12/7 4/8/5 3/7/4
f 9/13/6 6/10/6 5/9/6
f 10/14/8 8/12/7 3/7/4
f 10/14/8 3/7/4 2/6/3
f 10/14/8 2/6/3 11/15/9
f 12/16/10 2/6/3 1/5/2
f 13/17/11 2/6/3 12/16/10
f 14/18/12 2/6/3 13/17/11
f 11/15/9 2/6/3 14/18/12
f 14/18/12 15/19/13 11/15/9
f 14/18/12 13/17/11 15/19/13
f 11/15/9 15/19/13 16/20/14
f 16/20/14 15/19/13 17/21/15
f 16/20/14 17/21/15 18/22/16
f 18/22/16 17/21/15 19/23/17
f 17/21/15 15/19/13 20/24/18
f 17/21/15 20/24/18 19/23/17
f 20/24/18 15/19/13 21/25/19
f 15/19/13 13/17/11 21/25/19
f 19/23/17 20/24/18 22/26/20
f 19/23/17 22/26/20 23/27/21
f 18/28/16 19/23/17 23/27/21
f 23/27/21 22/26/20 24/29/22
f 23/27/21 24/29/22 25/30/23
f 26/31/24 23/27/21 25/30/23
f 18/32/16 23/27/21 26/31/24
f 25/30/23 24/29/22 27/33/25
f 27/33/25 28/34/26 25/30/23
f 29/35/27 28/34/26 27/33/25
f 30/36/28 28/34/26 29/35/27
f 31/37/29 28/34/26 30/36/28
f 32/38/30 33/39/30 34/40/30
f 35/41/30 33/39/30 32/38/30
f 33/39/30 36/42/30 34/40/30
f 34/40/30 36/42/30 37/43/30
f 36/42/30 38/44/30 37/43/30
f 37/43/30 38/44/30 39/45/30
f 38/44/30 40/46/30 39/45/30
f 39/45/30 40/46/30 41/47/30
f 40/46/30 42/48/30 41/47/30
f 41/47/30 42/48/30 43/49/30
f 42/48/30 44/50/30 43/49/30
f 43/49/30 44/50/30 45/51/30
f 44/50/30 46/52/30 45/51/30
f 45/51/30 46/52/30 47/53/30
f 46/52/30 48/54/30 47/53/30
f 47/53/30 48/54/30 49/55/30
f 48/54/30 50/56/30 49/55/30
f 49/55/30 50/56/30 51/57/30
f 50/56/30 52/58/30 51/57/30
f 51/57/30 52/58/30 53/59/30
f 52/58/30 54/60/30 53/59/30
f 53/59/30 54/60/30 55/61/30
f 32/38/30 56/62/30 35/41/30
f 57/63/30 56/62/30 32/38/30
f 58/64/30 59/65/30 60/66/30
f 61/67/30 59/65/30 58/64/30
f 59/65/30 62/68/30 60/66/30
f 60/66/30 62/68/30 63/69/30
f 62/68/30 64/70/30 63/69/30
f 63/69/30 64/70/30 65/71/30
f 64/70/30 66/72/30 65/71/30
f 65/71/30 66/72/30 67/73/30
f 66/72/30 68/74/30 67/73/30
f 67/73/30 68/74/30 69/75/30
f 68/74/30 70/76/30 69/75/30
f 69/75/30 70/76/30 71/77/30
f 70/76/30 72/78/30 71/77/30
f 71/77/30 72/78/30 73/79/30
f 72/78/30 74/80/30 73/79/30
f 73/79/30 74/80/30 75/81/30
f 74/80/30 76/82/30 75/81/30
f 75/81/30 76/82/30 77/83/30
f 76/82/30 78/84/30 77/83/30
f 77/83/30 78/84/30 79/85/30
f 78/84/30 80/86/30 79/85/30
f 79/85/30 80/86/30 81/87/30
f 58/64/30 82/88/30 61/67/30
f 83/89/30 82/88/30 58/64/30
f 84/90/31 10/91/8 26/92/24
f 31/93/29 10/91/8 84/90/31
f 8/94/7 10/91/8 31/93/29
f 26/92/24 10/91/8 11/95/9
f 11/95/9 16/96/14 26/92/24
f 26/92/24 16/96/14 18/97/16
f 85/98/32 21/99/19 86/100/33
f 85/98/32 20/101/18 21/99/19
f 85/98/32 87/102/34 20/101/18
f 20/101/18 87/102/34 22/103/20
f 86/100/33 21/99/19 13/104/11
f 12/105/10 86/100/33 13/104/11
f 12/105/10 88/106/35 86/100/33
f 88/106/35 12/105/10 1/107/2
f 88/106/35 1/107/2 4/108/5
f 87/109/34 24/110/22 22/103/20
f 87/111/34 89/112/36 24/110/22
f 24/110/22 89/112/36 27/113/25
f 88/114/35 90/115/37 86/116/33
f 88/114/35 30/117/28 90/115/37
f 4/118/5 30/117/28 88/114/35
f 86/116/33 90/115/37 89/119/36
f 86/116/33 89/119/36 85/120/32
f 85/120/32 89/119/36 87/121/34
f 90/122/37 29/123/27 89/124/36
f 30/125/28 29/123/27 90/122/37
f 89/124/36 29/123/27 27/126/25
f 28/127/26 84/128/31 25/129/23
f 31/130/29 84/128/31 28/127/26
f 25/129/23 84/128/31 26/131/24
f 91/132/38 93/133/38 92/134/38
f 93/133/38 94/135/38 92/134/38
f 154/136/39 155/137/39 156/138/39
f 153/139/39 155/137/39 154/136/39
f 152/140/39 153/139/39 154/136/39
f 151/141/39 153/139/39 152/140/39
f 138/142/39 151/141/39 152/140/39
f 139/143/39 151/141/39 138/142/39
f 140/144/39 139/143/39 138/142/39
f 142/145/39 139/143/39 140/144/39
f 143/146/39 142/145/39 140/144/39
f 144/147/39 142/145/39 143/146/39
f 145/148/39 144/147/39 143/146/39
f 146/149/39 144/147/39 145/148/39
f 148/150/39 146/149/39 145/148/39
f 149/151/39 146/149/39 148/150/39
f 147/152/39 149/151/39 150/153/39
f 150/153/39 149/151/39 148/150/39
f 155/137/39 157/154/39 156/138/39
f 156/138/39 157/154/39 158/155/39
f 157/154/39 159/156/39 158/155/39
f 158/155/39 159/156/39 160/157/39
f 159/156/39 161/158/39 160/157/39
f 160/157/39 161/158/39 162/159/39
f 150/153/39 163/160/39 147/152/39
f 164/161/39 163/160/39 150/153/39
f 165/162/39 166/163/39 167/164/39
f 168/165/39 166/163/39 165/162/39
f 166/163/39 169/166/39 167/164/39
f 167/164/39 169/166/39 170/167/39
f 169/166/39 171/168/39 170/167/39
f 170/167/39 171/168/39 172/169/39
f 171/168/39 173/170/39 172/169/39
f 172/169/39 173/170/39 174/171/39
f 173/170/39 175/172/39 174/171/39
f 174/171/39 175/172/39 176/173/39
f 175/172/39 177/174/39 176/173/39
f 176/173/39 177/174/39 178/175/39
f 177/174/39 179/176/39 178/175/39
f 178/175/39 179/176/39 180/177/39
f 179/176/39 181/178/39 180/177/39
f 180/177/39 181/178/39 182/179/39
f 181/178/39 183/180/39 182/179/39
f 182/179/39 183/180/39 184/181/39
f 183/180/39 185/182/39 184/181/39
f 184/181/39 185/182/39 186/183/39
f 185/182/39 187/184/39 186/183/39
f 186/183/39 187/184/39 188/185/39
f 165/162/39 189/186/39 168/165/39
f 190/187/39 189/186/39 165/162/39
f 194/188/40 193/189/40 191/190/40
f 191/190/40 193/189/40 192/191/40
f 93/133/41 91/132/42 194/188/42 191/190/41
f 94/135/43 93/133/41 191/190/41 192/191/43
f 91/132/42 92/134/44 193/189/45 194/188/42
f 92/134/44 94/135/43 192/191/43 193/189/45
usemtl com_bm_pc02_shadow.tga
f 135/192/46 136/193/46 137/194/46
f 137/194/46 136/193/46 141/195/46
usemtl com_bm_pc02_pc01.tga
f 99/196/47 100/197/48 101/198/49
f 101/198/49 100/197/48 102/199/48
f 102/199/48 103/200/50 101/198/49
f 101/198/49 103/200/50 104/201/51
f 105/202/52 100/197/48 99/196/47
f 106/203/53 100/197/48 105/202/52
f 106/203/53 105/202/52 107/204/48
f 107/204/48 105/202/52 108/205/54
f 108/205/54 109/206/48 107/204/48
f 110/207/55 109/206/48 108/205/54
f 111/208/56 109/206/48 110/207/55
f 112/209/57 109/206/48 111/208/56
f 104/201/51 103/200/50 113/210/58
f 113/210/58 103/200/50 114/211/59
f 111/208/56 114/212/59 112/209/57
f 113/213/58 114/212/59 111/208/56
f 110/214/55 108/215/54 115/216/60
f 115/216/60 108/215/54 116/217/61
f 117/218/62 110/214/55 115/216/60
f 111/219/56 110/214/55 117/218/62
f 108/215/54 118/220/63 116/217/61
f 105/221/52 118/220/63 108/215/54
f 105/221/52 99/222/47 118/220/63
f 118/220/63 99/222/47 119/223/64
f 99/222/47 101/224/49 119/223/64
f 119/223/64 101/224/49 120/225/65
f 101/224/49 121/226/66 120/225/65
f 104/227/51 121/226/66 101/224/49
f 122/228/67 111/219/56 117/218/62
f 113/229/58 111/219/56 122/228/67
f 119/230/64 120/231/65 123/232/68
f 123/232/68 120/231/65 124/233/68
f 119/230/64 123/232/68 118/234/63
f 118/234/63 123/232/68 125/235/68
f 118/234/63 125/235/68 116/236/61
f 116/236/61 125/235/68 126/237/68
f 127/238/68 116/236/61 126/237/68
f 115/239/60 116/236/61 127/238/68
f 115/239/60 127/238/68 117/240/62
f 117/240/62 127/238/68 128/241/68
f 129/242/69 117/240/62 128/241/68
f 122/243/67 117/240/62 129/242/69
f 120/231/65 130/244/70 124/233/68
f 121/245/66 130/244/70 120/231/65
f 130/244/70 121/245/66 129/246/69
f 129/246/69 121/245/66 122/243/67
f 112/247/57 100/248/48 109/249/48
f 100/248/48 106/250/53 109/249/48
f 109/249/48 106/250/53 107/251/48
f 102/252/48 100/248/48 112/247/57
f 112/247/57 103/253/50 102/252/48
f 114/254/59 103/253/50 112/247/57
f 121/255/66 131/256/46 122/257/67
f 122/257/67 131/256/46 132/258/46
f 132/258/46 133/259/46 122/257/67
f 122/257/67 133/259/46 113/260/58
f 121/255/66 134/261/46 131/256/46
f 104/262/51 134/261/46 121/255/66
f 113/263/58 134/261/46 104/262/51
f 133/264/46 134/261/46 113/263/58
f 123/265/68 124/266/68 127/267/68
f 127/267/68 124/266/68 128/268/68
f 124/266/68 130/269/70 128/268/68
f 128/268/68 130/269/70 129/270/69
f 126/271/68 123/265/68 127/267/68
f 125/272/68 123/265/68 126/271/68
