# Blender v2.78 (sub 0) OBJ File: ''
# www.blender.org
mtllib Pokecenter_colide.mtl
o Plane_Plane.002
v -0.819923 0.000000 0.783796
v 0.819923 0.000000 0.783796
v -0.819923 0.000000 -0.856051
v 0.819923 0.000000 -0.856051
v -0.819923 1.464278 -0.856051
v -0.819923 1.464278 0.783796
v 0.819923 1.464278 0.783796
v 0.819923 1.464278 -0.856051
vn 0.0000 -1.0000 0.0000
vn 0.0000 1.0000 0.0000
vn 0.0000 0.0000 -1.0000
vn 0.0000 0.0000 1.0000
vn 1.0000 0.0000 0.0000
vn -1.0000 0.0000 0.0000
usemtl None
s off
f 3//1 2//1 1//1
f 7//2 5//2 6//2
f 3//3 8//3 4//3
f 2//4 6//4 1//4
f 4//5 7//5 2//5
f 1//6 5//6 3//6
f 3//1 4//1 2//1
f 7//2 8//2 5//2
f 3//3 5//3 8//3
f 2//4 7//4 6//4
f 4//5 8//5 7//5
f 1//6 6//6 5//6
