# Blender v2.78 (sub 0) OBJ File: ''
# www.blender.org
mtllib 1x1_2.mtl
o Plane_Plane.002
v 0.495000 0.002853 -0.495000
v -0.495000 0.002851 0.495000
v -0.495000 0.002853 -0.495000
v 0.495000 0.002851 0.495000
v -0.495000 0.086850 0.495000
v 0.495000 0.086852 -0.495000
v -0.495000 0.086852 -0.495000
v 0.495000 0.086850 0.495000
vt 0.0000 0.0000
vt 0.0000 0.0000
vt 0.0000 0.0000
vt 0.0000 0.0000
vt 0.3332 0.0017
vt 0.0008 0.5003
vt 0.0008 0.0017
vt 0.3332 0.5003
vt 0.0000 0.0000
vt 0.0000 0.0000
vt 0.0000 0.0000
vt 0.0000 0.0000
vn 0.0000 -1.0000 -0.0000
vn 0.0000 1.0000 0.0000
vn 0.0000 0.0000 1.0000
vn 0.0000 0.0000 -1.0000
vn 1.0000 0.0000 0.0000
vn -1.0000 0.0000 0.0000
usemtl Material.003
s 1
f 1/1/1 2/2/1 3/3/1
f 1/1/1 4/4/1 2/2/1
f 5/5/2 6/6/2 7/7/2
f 5/5/2 8/8/2 6/6/2
f 4/4/3 5/9/3 2/2/3
f 4/4/3 8/10/3 5/9/3
f 3/3/4 6/11/4 1/1/4
f 3/3/4 7/12/4 6/11/4
f 1/1/5 8/10/5 4/4/5
f 1/1/5 6/11/5 8/10/5
f 2/2/6 7/12/6 3/3/6
f 2/2/6 5/9/6 7/12/6
