# Blender v2.78 (sub 0) OBJ File: ''
# www.blender.org
mtllib Circletile.mtl
o Circle
v 0.000000 0.000000 -1.000000
v -0.195090 0.000000 -0.980785
v -0.382683 0.000000 -0.923880
v -0.555570 0.000000 -0.831470
v -0.707107 0.000000 -0.707107
v -0.831470 0.000000 -0.555570
v -0.923880 0.000000 -0.382683
v -0.980785 0.000000 -0.195090
v -1.000000 0.000000 -0.000000
v -0.980785 0.000000 0.195090
v -0.923880 0.000000 0.382683
v -0.831470 0.000000 0.555570
v -0.707107 0.000000 0.707107
v -0.555570 0.000000 0.831470
v -0.382683 0.000000 0.923880
v -0.195090 0.000000 0.980785
v 0.000000 0.000000 1.000000
v 0.195091 0.000000 0.980785
v 0.382684 0.000000 0.923879
v 0.555571 0.000000 0.831469
v 0.707107 0.000000 0.707106
v 0.831470 0.000000 0.555570
v 0.923880 0.000000 0.382683
v 0.980785 0.000000 0.195089
v 1.000000 0.000000 -0.000001
v 0.980785 0.000000 -0.195091
v 0.923879 0.000000 -0.382684
v 0.831469 0.000000 -0.555571
v 0.707106 0.000000 -0.707108
v 0.555569 0.000000 -0.831470
v 0.382682 0.000000 -0.923880
v 0.195089 0.000000 -0.980786
v 0.000000 0.067987 -1.000000
v -0.195090 0.067987 -0.980785
v -0.382683 0.067987 -0.923880
v -0.555570 0.067987 -0.831470
v -0.707107 0.067987 -0.707107
v -0.831470 0.067987 -0.555570
v -0.923880 0.067987 -0.382683
v -0.980785 0.067987 -0.195090
v -1.000000 0.067987 -0.000000
v -0.980785 0.067987 0.195090
v -0.923880 0.067987 0.382683
v -0.831470 0.067987 0.555570
v -0.707107 0.067987 0.707107
v -0.555570 0.067987 0.831470
v -0.382683 0.067987 0.923880
v -0.195090 0.067987 0.980785
v 0.000000 0.067987 1.000000
v 0.195091 0.067987 0.980785
v 0.382684 0.067987 0.923879
v 0.555571 0.067987 0.831469
v 0.707107 0.067987 0.707106
v 0.831470 0.067987 0.555570
v 0.923880 0.067987 0.382683
v 0.980785 0.067987 0.195089
v 1.000000 0.067987 -0.000001
v 0.980785 0.067987 -0.195091
v 0.923879 0.067987 -0.382684
v 0.831469 0.067987 -0.555571
v 0.707106 0.067987 -0.707108
v 0.555569 0.067987 -0.831470
v 0.382682 0.067987 -0.923880
v 0.195089 0.067987 -0.980786
vt 0.2222 0.0843
vt 0.0096 0.4025
vt 0.4025 0.9904
vt 0.5975 0.0096
vt 0.0096 0.4025
vt 0.9904 0.5975
vt 1.0000 0.0000
vt 0.0000 1.0000
vt 0.0000 0.0000
vt 1.0000 0.0000
vt 0.0000 1.0000
vt 0.0000 0.0000
vt 1.0000 0.0000
vt 0.0000 1.0000
vt 0.0000 0.0000
vt 1.0000 0.0000
vt 0.0000 1.0000
vt 0.0000 0.0000
vt 1.0000 0.0000
vt 0.0000 1.0000
vt 0.0000 0.0000
vt 1.0000 0.0000
vt 0.0000 1.0000
vt 0.0000 0.0000
vt 1.0000 0.0000
vt 0.0000 1.0000
vt 0.0000 0.0000
vt 1.0000 0.0000
vt 0.0000 1.0000
vt 0.0000 0.0000
vt 1.0000 0.0000
vt 0.0000 1.0000
vt 0.0000 0.0000
vt 1.0000 0.0000
vt 0.0000 1.0000
vt 0.0000 0.0000
vt 1.0000 0.0000
vt 0.0000 1.0000
vt 0.0000 0.0000
vt 1.0000 0.0000
vt 0.0000 1.0000
vt 0.0000 0.0000
vt 1.0000 0.0000
vt 0.0000 1.0000
vt 0.0000 0.0000
vt 1.0000 0.0000
vt 0.0000 1.0000
vt 0.0000 0.0000
vt 1.0000 0.0000
vt 0.0000 1.0000
vt 0.0000 0.0000
vt 1.0000 0.0000
vt 0.0000 1.0000
vt 0.0000 0.0000
vt 1.0000 0.0000
vt 0.0000 1.0000
vt 0.0000 0.0000
vt 1.0000 0.0000
vt 0.0000 1.0000
vt 0.0000 0.0000
vt 1.0000 0.0000
vt 0.0000 1.0000
vt 0.0000 0.0000
vt 1.0000 0.0000
vt 0.0000 1.0000
vt 0.0000 0.0000
vt 1.0000 0.0000
vt 0.0000 1.0000
vt 0.0000 0.0000
vt 1.0000 0.0000
vt 0.0000 1.0000
vt 0.0000 0.0000
vt 1.0000 0.0000
vt 0.0000 1.0000
vt 0.0000 0.0000
vt 1.0000 0.0000
vt 0.0000 1.0000
vt 0.0000 0.0000
vt 1.0000 0.0000
vt 0.0000 1.0000
vt 0.0000 0.0000
vt 1.0000 0.0000
vt 0.0000 1.0000
vt 0.0000 0.0000
vt 1.0000 0.0000
vt 0.0000 1.0000
vt 0.0000 0.0000
vt 1.0000 0.0000
vt 0.0000 1.0000
vt 0.0000 0.0000
vt 1.0000 0.0000
vt 0.0000 1.0000
vt 0.0000 0.0000
vt 1.0000 0.0000
vt 0.0000 1.0000
vt 0.0000 0.0000
vt 1.0000 0.0000
vt 0.0000 1.0000
vt 0.0000 0.0000
vt 1.0000 0.0000
vt 0.0000 1.0000
vt 0.0000 0.0000
vt 0.5000 1.0000
vt 0.5975 0.9904
vt 0.6913 0.9619
vt 0.7778 0.9157
vt 0.8536 0.8536
vt 0.9157 0.7778
vt 0.9619 0.6913
vt 0.9904 0.5975
vt 1.0000 0.5000
vt 0.9904 0.4025
vt 0.9619 0.3087
vt 0.9157 0.2222
vt 0.8536 0.1464
vt 0.5975 0.0096
vt 0.7778 0.0843
vt 0.6913 0.0381
vt 0.5000 0.0000
vt 0.4025 0.0096
vt 0.3087 0.0381
vt 0.1464 0.1464
vt 0.0843 0.2222
vt 0.0381 0.3087
vt 0.0000 0.5000
vt 0.0096 0.5975
vt 0.0381 0.6913
vt 0.0843 0.7778
vt 0.1464 0.8536
vt 0.2222 0.9157
vt 0.3087 0.9619
vt 0.4025 0.9904
vt 0.5000 1.0000
vt 0.7778 0.9157
vt 0.5975 0.9904
vt 0.6913 0.9619
vt 0.8536 0.8536
vt 0.9157 0.7778
vt 0.9619 0.6913
vt 1.0000 0.5000
vt 0.9904 0.4025
vt 0.9619 0.3087
vt 0.9157 0.2222
vt 0.8536 0.1464
vt 0.7778 0.0843
vt 0.6913 0.0381
vt 0.5000 0.0000
vt 0.4025 0.0096
vt 0.3087 0.0381
vt 0.2222 0.0843
vt 0.1464 0.1464
vt 0.0843 0.2222
vt 0.0381 0.3087
vt 0.0000 0.5000
vt 0.0096 0.5975
vt 0.0381 0.6913
vt 0.0843 0.7778
vt 0.1464 0.8536
vt 0.2222 0.9157
vt 0.3087 0.9619
vt 1.0000 1.0000
vt 1.0000 1.0000
vt 1.0000 1.0000
vt 1.0000 1.0000
vt 1.0000 1.0000
vt 1.0000 1.0000
vt 1.0000 1.0000
vt 1.0000 1.0000
vt 1.0000 1.0000
vt 1.0000 1.0000
vt 1.0000 1.0000
vt 1.0000 1.0000
vt 1.0000 1.0000
vt 1.0000 1.0000
vt 1.0000 1.0000
vt 1.0000 1.0000
vt 1.0000 1.0000
vt 1.0000 1.0000
vt 1.0000 1.0000
vt 1.0000 1.0000
vt 1.0000 1.0000
vt 1.0000 1.0000
vt 1.0000 1.0000
vt 1.0000 1.0000
vt 1.0000 1.0000
vt 1.0000 1.0000
vt 1.0000 1.0000
vt 1.0000 1.0000
vt 1.0000 1.0000
vt 1.0000 1.0000
vt 1.0000 1.0000
vt 1.0000 1.0000
vn 0.0000 -1.0000 0.0000
vn 0.0000 1.0000 0.0000
vn 0.9569 0.0000 0.2903
vn -0.9569 0.0000 0.2903
vn 0.9952 0.0000 0.0980
vn -0.8819 0.0000 0.4714
vn 0.9952 0.0000 -0.0980
vn -0.7730 0.0000 0.6344
vn 0.9569 0.0000 -0.2903
vn -0.6344 0.0000 0.7730
vn 0.8819 0.0000 -0.4714
vn -0.4714 0.0000 0.8819
vn -0.0980 0.0000 -0.9952
vn 0.7730 0.0000 -0.6344
vn -0.2903 0.0000 0.9569
vn -0.2903 0.0000 -0.9569
vn 0.6344 0.0000 -0.7730
vn -0.0980 0.0000 0.9952
vn -0.4714 0.0000 -0.8819
vn 0.4714 0.0000 -0.8819
vn 0.0980 0.0000 0.9952
vn -0.6344 0.0000 -0.7730
vn 0.2903 0.0000 -0.9569
vn 0.2903 0.0000 0.9569
vn -0.7730 0.0000 -0.6344
vn 0.0980 0.0000 -0.9952
vn 0.4714 0.0000 0.8819
vn -0.8819 0.0000 -0.4714
vn 0.6344 0.0000 0.7730
vn -0.9569 0.0000 -0.2903
vn 0.7730 0.0000 0.6344
vn -0.9952 0.0000 -0.0980
vn 0.8819 0.0000 0.4714
vn -0.9952 0.0000 0.0980
usemtl None
s off
f 15/1/1 11/2/1 3/3/1
f 49/4/2 57/5/2 41/6/2
f 24/7/3 55/8/3 23/9/3
f 11/10/4 42/11/4 10/12/4
f 25/13/5 56/14/5 24/15/5
f 12/16/6 43/17/6 11/18/6
f 26/19/7 57/20/7 25/21/7
f 13/22/8 44/23/8 12/24/8
f 27/25/9 58/26/9 26/27/9
f 14/28/10 45/29/10 13/30/10
f 28/31/11 59/32/11 27/33/11
f 15/34/12 46/35/12 14/36/12
f 2/37/13 33/38/13 1/39/13
f 29/40/14 60/41/14 28/42/14
f 16/43/15 47/44/15 15/45/15
f 3/46/16 34/47/16 2/48/16
f 30/49/17 61/50/17 29/51/17
f 17/52/18 48/53/18 16/54/18
f 4/55/19 35/56/19 3/57/19
f 31/58/20 62/59/20 30/60/20
f 18/61/21 49/62/21 17/63/21
f 5/64/22 36/65/22 4/66/22
f 32/67/23 63/68/23 31/69/23
f 19/70/24 50/71/24 18/72/24
f 6/73/25 37/74/25 5/75/25
f 1/76/26 64/77/26 32/78/26
f 20/79/27 51/80/27 19/81/27
f 7/82/28 38/83/28 6/84/28
f 21/85/29 52/86/29 20/87/29
f 8/88/30 39/89/30 7/90/30
f 22/91/31 53/92/31 21/93/31
f 9/94/32 40/95/32 8/96/32
f 23/97/33 54/98/33 22/99/33
f 10/100/34 41/101/34 9/102/34
f 3/3/1 2/103/1 1/104/1
f 1/104/1 32/105/1 3/3/1
f 31/106/1 30/107/1 29/108/1
f 29/108/1 28/109/1 27/110/1
f 27/110/1 26/111/1 25/112/1
f 25/112/1 24/113/1 27/110/1
f 23/114/1 22/115/1 19/116/1
f 21/117/1 20/118/1 19/116/1
f 19/116/1 18/119/1 17/120/1
f 17/120/1 16/121/1 19/116/1
f 15/1/1 14/122/1 11/2/1
f 13/123/1 12/124/1 11/2/1
f 11/2/1 10/125/1 9/126/1
f 9/126/1 8/127/1 7/128/1
f 7/128/1 6/129/1 5/130/1
f 5/130/1 4/131/1 3/3/1
f 3/3/1 32/105/1 31/106/1
f 31/106/1 29/108/1 27/110/1
f 27/110/1 24/113/1 23/114/1
f 22/115/1 21/117/1 19/116/1
f 19/116/1 16/121/1 15/1/1
f 14/122/1 13/123/1 11/2/1
f 11/2/1 9/126/1 7/128/1
f 7/128/1 5/130/1 11/2/1
f 3/3/1 31/106/1 27/110/1
f 27/110/1 23/114/1 19/116/1
f 19/116/1 15/1/1 3/3/1
f 11/2/1 5/130/1 3/3/1
f 3/3/1 27/110/1 19/116/1
f 33/132/2 34/133/2 37/134/2
f 35/135/2 36/136/2 37/134/2
f 37/134/2 38/137/2 39/138/2
f 39/138/2 40/139/2 37/134/2
f 41/6/2 42/140/2 43/141/2
f 43/141/2 44/142/2 45/143/2
f 45/143/2 46/144/2 47/145/2
f 47/145/2 48/146/2 45/143/2
f 49/4/2 50/147/2 51/148/2
f 51/148/2 52/149/2 53/150/2
f 53/150/2 54/151/2 55/152/2
f 55/152/2 56/153/2 53/150/2
f 57/5/2 58/154/2 59/155/2
f 59/155/2 60/156/2 61/157/2
f 61/157/2 62/158/2 63/159/2
f 63/159/2 64/160/2 61/157/2
f 34/133/2 35/135/2 37/134/2
f 37/134/2 40/139/2 41/6/2
f 41/6/2 43/141/2 49/4/2
f 45/143/2 48/146/2 49/4/2
f 49/4/2 51/148/2 57/5/2
f 53/150/2 56/153/2 57/5/2
f 57/5/2 59/155/2 61/157/2
f 61/157/2 64/160/2 33/132/2
f 33/132/2 37/134/2 41/6/2
f 43/141/2 45/143/2 49/4/2
f 51/148/2 53/150/2 57/5/2
f 57/5/2 61/157/2 33/132/2
f 33/132/2 41/6/2 57/5/2
f 24/7/3 56/161/3 55/8/3
f 11/10/4 43/162/4 42/11/4
f 25/13/5 57/163/5 56/14/5
f 12/16/6 44/164/6 43/17/6
f 26/19/7 58/165/7 57/20/7
f 13/22/8 45/166/8 44/23/8
f 27/25/9 59/167/9 58/26/9
f 14/28/10 46/168/10 45/29/10
f 28/31/11 60/169/11 59/32/11
f 15/34/12 47/170/12 46/35/12
f 2/37/13 34/171/13 33/38/13
f 29/40/14 61/172/14 60/41/14
f 16/43/15 48/173/15 47/44/15
f 3/46/16 35/174/16 34/47/16
f 30/49/17 62/175/17 61/50/17
f 17/52/18 49/176/18 48/53/18
f 4/55/19 36/177/19 35/56/19
f 31/58/20 63/178/20 62/59/20
f 18/61/21 50/179/21 49/62/21
f 5/64/22 37/180/22 36/65/22
f 32/67/23 64/181/23 63/68/23
f 19/70/24 51/182/24 50/71/24
f 6/73/25 38/183/25 37/74/25
f 1/76/26 33/184/26 64/77/26
f 20/79/27 52/185/27 51/80/27
f 7/82/28 39/186/28 38/83/28
f 21/85/29 53/187/29 52/86/29
f 8/88/30 40/188/30 39/89/30
f 22/91/31 54/189/31 53/92/31
f 9/94/32 41/190/32 40/95/32
f 23/97/33 55/191/33 54/98/33
f 10/100/34 42/192/34 41/101/34
